<svg width="160" height="42" viewBox="0 0 160 42" fill="none" xmlns="http://www.w3.org/2000/svg">
<mask id="mask0_135_2" style="mask-type:luminance" maskUnits="userSpaceOnUse" x="0" y="0" width="44" height="42">
<path d="M0 0H43.2727V42H0V0Z" fill="white"/>
</mask>
<g mask="url(#mask0_135_2)">
<path d="M41.1661 30.1969C41.0941 30.4708 41.1033 30.751 41.1263 31.028C41.1002 31.1333 41.0971 31.2354 41.1201 31.3407C40.9929 32.356 41.1983 33.472 40.3597 34.1978C39.1438 35.255 30.2437 38.8674 28.755 39.4726C22.8936 41.8515 22.5363 41.9939 21.8955 41.9568C21.2837 41.9212 21.6241 41.9753 17.5581 40.2774C12.1567 38.0224 13.8953 38.7962 7.53409 36.035C2.26605 33.749 2.44543 34.1313 2.35958 30.9011C2.13266 21.9984 2.09587 22.9549 2.0698 17.8179C2.06674 17.4 1.95328 17.4929 1.29708 17.1292C0.455354 16.6679 0.259106 15.9544 0.229976 15.0753C0.130318 11.7089 -2.99513e-06 11.3328 0.653136 10.7369C1.19282 10.2463 1.29094 10.2617 7.26271 7.7745C8.94156 7.07491 8.90936 7.24362 8.78057 6.81644C8.431 5.66955 8.51226 4.58611 9.31412 3.64353C10.0776 2.74892 10.9224 1.93945 11.8408 1.20736C13.9673 -0.487442 16.2135 0.698142 18.1852 2.60963C19.0529 3.44696 19.0023 3.60019 19.2875 3.44696C19.8793 3.12503 20.511 2.88358 21.1166 2.5926C21.7697 2.2846 22.4168 2.29079 23.073 2.56474C23.5498 2.7644 24.0312 2.94704 24.4804 3.20706C24.6245 3.29374 24.7165 3.27826 24.83 3.15289C25.8112 2.08029 26.8814 0.99686 28.2873 0.653257C30.5028 0.108446 32.8593 1.26153 34.5504 2.7969C35.4243 3.58936 35.6957 4.52885 35.4627 5.54573C35.3369 6.09363 35.1944 6.64154 34.8126 7.0811C34.624 7.29779 34.4124 7.16004 39.9365 9.18296C41.6153 9.79742 43.3095 10.1255 43.2835 11.8683C43.2651 13.2273 43.2145 14.5846 43.1547 15.942C43.1163 16.7979 42.6656 17.3071 41.899 17.5842C41.8009 17.6198 41.7027 17.674 41.6015 17.6894C41.3302 17.7374 41.4191 17.756 41.4099 20.576C41.4191 20.5822 41.1661 30.1938 41.1661 30.1969ZM26.6944 8.48492C28.6262 7.49126 30.1026 6.51617 30.4997 6.15709C30.4108 6.04256 30.5212 6.10601 29.379 5.67574C29.0263 5.54263 26.8277 8.08405 26.6944 8.48492ZM9.81241 9.42441C11.1539 10.0389 13.3525 10.7663 12.4587 10.3329C11.7366 9.9816 12.2793 10.3732 9.93506 8.80685C9.8906 8.76507 9.82161 8.73101 9.80321 8.67994C9.68362 8.36419 9.40151 8.16299 9.24819 7.87356C9.14394 7.68008 9.1976 7.71104 7.34857 8.48182C9.13474 9.16748 9.26966 9.2557 9.81241 9.42441ZM33.6888 11.1006C33.793 11.1099 33.8697 11.0681 33.9325 10.9861C34.463 10.3004 35.2357 9.92434 35.1913 9.70765C34.44 9.58073 33.6796 9.4631 32.9038 9.44144C32.292 9.22784 32.1694 9.63181 31.6036 10.0141C31.898 10.0466 32.8179 10.0807 33.0969 9.98779L33.3898 10.0296C33.3361 10.158 33.2104 10.1735 33.1567 10.2617C32.9666 10.237 31.6128 10.4955 30.8156 10.5357C30.6576 10.5434 30.6484 10.6889 29.8083 10.9722C29.7546 10.9923 29.6795 10.9923 29.6825 11.0805C29.7868 11.113 29.891 11.0867 29.9922 11.0805C32.3518 10.9211 32.4806 11.0016 33.6888 11.1006ZM12.0141 13.396C12.336 13.5647 11.8347 13.4733 10.4809 14.2379C10.2724 14.3556 9.98259 14.4949 10.2095 14.5784C11.1723 14.9313 11.1371 14.9375 11.2705 14.8354C11.8286 14.4128 17.4922 12.3265 17.6393 12.2816C17.6991 12.263 17.7758 12.2537 17.8295 12.1376C13.141 12.1376 8.86643 13.6096 8.81277 14.0646C9.57323 14.3556 9.63302 14.4097 9.76181 14.3262C10.3797 13.9284 10.97 13.7844 12.0141 13.396ZM14.9486 11.7089C14.4411 11.3901 14.3905 11.6516 12.4587 11.6037C12.1475 11.0434 12.4664 11.2693 10.6955 10.4815C10.5851 10.4351 10.4747 10.4243 10.3736 10.5171C10.1727 10.7013 9.93506 10.8422 9.72042 11.0047C9.09027 11.4798 8.89403 11.5201 9.216 11.6037C13.3403 12.6763 10.7814 12.2212 14.9486 11.7089ZM19.9468 13.4981C19.7475 13.5275 19.7475 13.5275 19.7797 13.3201C19.9407 13.2242 20.0066 13.0524 20.1139 12.9131C20.278 12.6964 19.7505 12.6035 19.5451 12.8682C19.5144 12.9084 19.4853 12.9533 19.4577 12.9951C19.3335 13.0616 19.2645 13.187 19.1664 13.2814C18.9456 13.495 19.0131 13.447 19.7628 13.9949C21.5842 15.3229 21.4386 15.326 21.7038 15.1093C23.7767 13.4254 23.6816 13.6003 23.1864 13.3929C22.7035 13.0214 22.3754 12.6314 22.0473 13.0214C21.5137 13.6482 21.5996 13.6513 21.457 13.5879C21.4769 13.0013 21.5244 12.8682 21.319 12.8744C20.675 12.8929 20.6306 12.766 20.5294 12.9022C20.419 13.0555 20.2488 13.1545 20.1568 13.3201C20.12 13.3232 20.1001 13.3418 20.094 13.3774C20.0219 13.3898 19.9744 13.4347 19.9468 13.4981ZM21.0721 5.22379C21.1963 6.24686 21.1258 6.17257 21.4738 6.16328C21.6655 6.16019 21.6808 6.1509 21.6778 5.9435C21.6747 5.63859 21.6624 5.33523 21.6118 5.03342C21.6655 4.60314 21.6624 4.16977 21.7728 3.74259C21.8985 4.14346 21.8801 4.57373 22.0197 4.96841C22.0856 6.23293 22.012 6.22674 22.4106 6.21436C22.5118 6.21126 22.5685 6.17257 22.5747 6.07042C22.5961 5.74539 22.6498 5.425 22.6283 5.09687C22.7755 4.68827 22.8338 4.2487 23.0377 3.85093C23.1006 4.30597 23.0469 4.76565 23.1006 5.22689C24.1523 3.76116 24.4482 3.77199 24.0987 3.63115C21.6302 2.64058 22.7387 2.71797 19.47 3.96546C20.7532 5.7717 20.4895 5.5999 20.7379 5.78718L20.6781 4.05833L20.744 4.05214C20.9112 4.42824 20.9526 4.8384 21.0721 5.22379ZM30.6638 13.0214C30.6929 13.1065 30.7389 13.1483 30.8278 13.0972C31.0777 13.2567 31.8566 13.4022 32.0145 13.639C31.6864 13.6003 27.4364 12.1608 27.1359 12.0618C27.0194 12.0231 26.9918 12.037 25.7729 12.2367C25.7484 12.2398 25.7422 12.2661 25.7729 12.311C26.8584 12.6283 29.5967 13.7875 30.443 14.224C31.2909 14.6605 31.1023 15.0149 31.5162 14.8431C34.5795 13.5647 34.5565 13.6575 34.5657 13.5337C34.3833 13.4254 32.036 12.6097 31.9409 12.5772C31.6603 12.4828 31.3583 12.4534 31.0869 12.3388C30.3418 12.0169 29.0739 11.7213 28.8776 11.6671C28.666 11.6098 28.4744 11.6037 28.2689 11.695C27.5345 12.0308 27.3644 11.8111 28.1233 12.0773C29.6887 12.6252 29.4863 12.5586 30.6638 13.0214ZM11.5602 23.0277C11.8255 23.7195 11.4146 29.8316 13.6454 37.7206C13.7558 38.1152 13.5733 37.8862 21.1381 41.1179C21.7284 41.3702 21.7314 41.3671 21.8709 40.7232C21.9905 40.166 21.9277 39.1662 22.1362 40.587C22.1576 40.7464 22.1837 40.9027 22.2588 41.0451C22.3907 41.3005 22.4352 41.3253 22.7004 41.2231C24.8745 40.3672 25.73 39.9756 29.172 38.5486C29.5032 38.4109 29.4434 38.2777 29.7362 36.2208C30.029 34.153 30.5595 24.885 30.5948 22.9193C30.6009 22.5757 30.6454 22.7893 25.0661 25.2611C22.9564 26.1975 22.1132 26.7609 21.0982 26.3786C18.9395 25.5629 11.7212 22.1423 11.6108 22.2089C11.5694 22.6934 11.5541 22.6964 12.0907 22.9286C20.58 26.6107 20.6965 26.637 21.7192 27.2128C22.035 27.3908 22.1898 27.1076 23.5528 26.5349C27.9102 24.707 27.8304 24.6683 27.9194 24.7256C27.809 24.8943 25.247 26.0443 25.0661 26.2253C24.5586 26.4173 24.4866 26.5504 24.4896 26.5473C24.413 26.4838 23.9975 26.8119 22.2619 27.6199C22.0703 27.7096 22.1009 27.6818 22.107 28.3334C22.1101 28.4959 22.2711 28.4232 22.3784 28.3752C26.3218 26.637 25.891 26.7098 25.9446 26.9002C25.6794 27.0023 23.8488 27.9387 23.4225 28.1817C22.2236 28.8627 22.1239 28.7699 22.1362 29.0314C22.1668 29.748 22.0657 29.8409 22.334 29.7573C22.7602 29.6242 23.1542 29.4106 23.5712 29.2481L23.5804 29.375C23.1481 29.5375 22.7602 29.7867 22.36 30.0096C22.0473 30.1814 22.2021 30.0189 22.1484 33.6623C22.1484 33.7552 22.2082 33.9115 22.0381 33.9053C21.8617 33.9007 21.9599 33.7428 21.9491 33.6561C21.6885 31.4274 21.9338 31.1534 21.5643 30.9584C21.5612 30.9553 21.5674 30.9491 18.9686 29.4323L19.0284 29.3534C19.148 29.4555 19.2998 29.5004 19.4378 29.57C21.6379 30.6999 21.7314 30.7959 21.7345 30.6241C21.7375 29.8208 21.7284 29.974 21.3849 29.7991C14.3522 26.2161 14.6558 26.4451 14.3552 26.1805C14.4503 26.0535 14.4656 26.2284 16.9019 27.2856C21.6149 29.3348 21.6977 29.6366 21.713 29.4292C21.7284 29.2419 21.7314 29.0469 21.7008 28.8627C21.6778 28.7296 21.7161 28.8271 16.6336 26.4807C13.9137 25.2224 14.1099 25.2007 13.7144 25.0692C13.6898 25.0181 13.2636 24.9005 13.3234 24.7348C21.6379 28.3752 21.6502 28.321 21.6885 28.2575C21.7881 28.0981 21.6624 27.722 21.4892 27.6431C20.8575 27.3568 20.2182 27.0952 19.6049 26.7671C16.9111 25.34 11.8347 23.1267 11.5602 23.0277ZM17.4446 9.38262C16.7501 9.16748 14.5423 8.65363 12.6795 7.2204C11.9205 6.63225 10.832 5.51941 11.0175 4.57064C11.062 4.34157 10.7047 4.62481 10.6235 4.86781C10.0485 6.56415 11.0957 7.03622 10.7553 7.09658C9.68055 5.94659 10.2325 4.73934 10.0516 4.91734C9.49044 5.47608 9.08721 6.77465 10.2003 7.81938C12.4188 9.90267 16.3561 11.4752 18.6144 11.5433C18.4627 11.0619 18.4703 10.9784 18.3063 10.9505C18.1008 10.918 17.9046 10.8453 17.693 10.8545C17.5964 10.7849 17.4814 10.7632 17.371 10.7276C14.2173 9.72158 13.2789 8.86412 12.4342 8.41837C12.2854 7.97571 13.1471 8.96318 16.3898 10.011C16.7532 10.1286 17.1073 10.3035 17.5013 10.2973C17.7467 10.415 18.018 10.4026 18.2894 10.4691C18.202 10.2014 18.0778 9.97232 17.9904 9.73087C17.8923 9.46001 17.7191 9.35167 17.4446 9.38262ZM34.2514 6.50379C34.9414 5.45596 34.4845 4.4205 33.9509 4.22703C33.4434 4.04285 34.0905 4.66969 33.6075 5.70824C33.586 5.75932 33.5722 5.84444 33.491 5.82587C33.422 5.81039 33.4174 5.77479 33.4741 5.54573C33.5814 5.11854 33.4588 3.99797 33.0326 4.09238C32.7397 4.16048 33.4251 4.81983 30.8156 6.78393C29.1582 8.03297 26.676 9.19225 26.1577 9.56835C25.7162 9.638 25.6978 9.80052 25.1044 10.6827L25.1397 10.74C25.9216 10.4599 28.3318 9.85778 31.645 7.57174L31.7017 7.65068C31.4488 7.78843 30.8784 8.29455 28.9251 9.4337C25.5997 11.3746 25.0032 11.0294 24.83 11.3235C24.7549 11.4535 24.7993 11.5557 24.9496 11.5495C28.9435 11.4024 32.6109 8.99413 34.2514 6.50379ZM18.4504 8.12894C18.3722 7.34113 18.9241 7.03312 18.9548 6.89537C18.9058 6.97276 19.6969 6.52081 20.0572 6.42795C20.0158 6.21126 18.685 3.84783 16.8037 2.26138C16.0877 1.65621 14.6895 0.828154 13.9643 1.06496C14.3675 1.24914 14.7845 1.38535 15.1878 1.6949C14.6236 1.71038 13.5703 0.794103 12.3452 1.64382C13.0459 1.64382 13.7144 1.73359 14.3077 2.13446C14.1161 2.12208 13.926 2.0741 13.7374 2.05398C11.1371 1.80324 9.36778 4.2843 9.45517 4.56445C9.5533 4.55206 9.59469 4.48551 9.62996 4.40812C10.8887 3.29064 12.9386 3.62186 14.4089 4.50718C17.7068 6.4945 18.5547 9.59312 18.7156 9.77575C18.7248 9.44144 18.4949 8.60255 18.4504 8.12894ZM26.2911 5.81349C26.2528 5.71134 26.3387 5.65716 26.3862 5.5968C29.4771 1.51072 31.6481 2.00755 31.6236 1.60822C31.0455 1.53548 30.4369 1.27391 29.1367 1.80015C29.011 1.85122 28.9006 1.98433 28.7396 1.91778C28.7672 1.94254 28.7074 1.88527 28.7764 1.84813C29.0953 1.67633 29.3836 1.43333 29.7515 1.36368C30.4077 1.23986 28.4621 0.800294 26.6438 2.25209C25.0063 3.5615 24.1171 5.13093 23.3505 6.31651C23.3152 6.37378 23.2753 6.44652 23.3535 6.47593C23.5298 6.54248 23.7108 6.61832 23.8932 6.63225C23.9913 6.63844 23.9499 6.6694 25.3789 4.61243C25.4141 4.56135 25.4325 4.50099 25.5123 4.51956C25.5813 4.60933 25.3313 4.86007 25.0768 5.36464C24.3409 6.80715 24.1324 6.80405 24.3532 6.91549C24.8239 7.15694 25.1274 7.62282 25.1872 8.02988C25.152 8.67065 24.8683 9.2588 24.7549 9.89338C24.9312 9.88719 24.8116 9.86397 25.3451 9.02044C26.8875 6.58427 29.6473 3.5228 32.7612 3.41756C34.345 3.36338 34.3741 3.87724 34.4906 3.70699C34.437 3.51352 33.8221 2.84798 33.1905 2.45949C31.5822 1.47202 29.0585 3.22409 27.6158 4.44682C27.1022 4.88019 26.3187 5.83825 26.2911 5.81349ZM38.8924 12.7753C38.8096 12.636 38.7115 12.718 39.4888 12.4627C42.4755 11.4829 42.5613 11.5201 42.3911 11.3421C42.0094 10.9443 42.2716 10.9443 35.6451 13.413C35.2725 13.5492 35.7279 13.543 35.665 14.7317C35.4535 18.5949 35.3676 18.3999 35.6834 18.2699C37.718 17.4356 37.4558 17.4666 37.4497 17.6523C37.1246 17.7916 37.4435 17.6523 35.6773 18.4633C35.3431 18.6166 35.4121 18.5686 35.3523 19.8145C35.5194 19.83 36.3933 19.4137 37.3454 18.9772C41.2995 17.1679 42.198 16.9249 42.4601 15.6681C42.6564 14.7348 42.5997 13.0647 42.5583 12.1129C42.5399 11.7089 42.7821 11.7693 38.8924 12.7753ZM24.5494 12.4704C24.37 12.3868 24.2842 12.5586 23.5237 12.7026C23.076 12.7846 23.2155 12.7428 24.022 13.2025C24.1861 13.2938 24.3409 13.4022 24.4298 13.5817C24.37 13.7504 24.2366 13.8556 24.1048 13.9609C21.5106 15.9792 21.6686 16.0968 20.971 15.6062C18.5807 13.9315 18.5363 13.9067 18.3722 13.7535C17.8708 13.2845 19.0913 12.7088 19.0223 12.5106C18.9839 12.4116 18.8521 12.4534 18.7448 12.5014C17.2453 13.1576 17.5642 12.9131 12.4188 15.0304C12.1413 15.1449 11.9359 15.2254 12.2609 15.3492C20.7609 18.5268 20.8606 18.9153 22.1484 18.6676C23.329 18.4417 25.4586 17.4929 29.8819 15.5969C30.4997 15.3322 30.742 15.2471 30.5243 15.0939C29.5691 14.4097 26.4858 13.3681 24.5494 12.4704ZM5.64827 23.0664C5.6544 23.232 5.9825 23.3047 2.68768 22.0851C2.79807 24.464 2.77967 27.2314 3.29482 32.5727C3.36075 33.246 3.82684 33.5091 4.75748 34.0121C5.78012 34.5678 9.124 36.1372 9.33865 36.0644C7.10479 20.1798 8.02931 20.3531 7.55095 20.1256C2.58035 17.7854 2.63095 17.7668 2.56502 17.804C2.56502 18.7976 2.28752 18.4386 4.15187 19.4353C5.82458 20.3299 5.43975 20.2278 6.3106 20.6364C6.59731 20.7695 6.88402 20.9289 7.14006 21.1487C7.0358 21.1998 6.97907 21.1394 6.91928 21.1069C4.69156 20.0173 4.14267 19.7758 2.93145 19.2279C2.59722 19.0747 2.59722 19.0778 2.60948 19.4601C2.61562 19.6706 2.56809 19.8021 2.80267 19.9136C3.34388 20.1767 3.82684 20.5497 4.38185 20.7958C4.64096 20.9103 6.03003 21.613 6.20941 21.8328C5.21897 21.4319 6.00397 21.7508 2.95599 20.3454C2.63402 20.1999 2.65088 20.203 2.64475 20.5652C2.64168 20.785 2.72294 20.901 2.91612 20.9707C3.1875 21.0698 3.40828 21.2756 3.71031 21.3112C3.8115 21.3236 3.90656 21.387 3.99702 21.435C4.06755 21.4706 4.03535 21.5186 3.99702 21.5588C3.91883 21.4954 3.8207 21.5341 3.73025 21.4954C3.43281 21.3716 3.1231 21.2787 2.818 21.1735C2.7674 21.158 2.69074 21.1456 2.68461 21.2029C2.61562 21.8266 2.71068 21.7895 2.86553 21.8591C3.79004 22.2755 4.70995 22.6903 5.64827 23.0664ZM34.3557 33.8852C34.2162 36.2393 33.9954 36.4111 34.3266 36.3059C34.3296 36.3059 36.0928 35.5676 37.5953 34.882C39.3846 34.0663 40.0561 33.8279 40.2385 32.9008C40.4915 31.6084 40.7782 21.7987 40.8043 20.884C40.8104 20.655 40.7874 20.6333 40.6111 20.7029C37.9802 21.7662 38.3297 21.7477 38.3236 21.5372C38.4309 21.5186 40.6586 20.4027 40.7844 20.2912C40.858 20.2278 40.8825 19.9925 40.8227 19.9383C40.7598 19.878 40.7982 19.8842 36.5666 21.6548C36.6677 21.3979 40.861 19.6938 40.8641 19.3781C40.8641 19.231 40.9055 19.0855 40.8411 18.9199C39.1944 19.6071 37.5662 20.3113 35.9395 21.0249C36.611 20.5528 40.5544 18.6491 40.835 18.454C40.9239 18.3937 40.9775 18.1383 40.9116 18.047C40.8135 17.9154 40.7721 18.0377 40.5329 18.146C38.8387 18.9153 37.1568 19.7186 35.4473 20.4506C35.3339 20.4986 35.2802 20.5621 35.2756 20.6844C35.2725 21.6068 34.4814 31.7555 34.3557 33.8852ZM19.8763 21.6703C19.8609 21.6239 19.8701 21.579 19.9054 21.5403C20.4067 21.8715 20.9526 22.1238 21.4738 22.4225C21.6502 22.5246 21.5965 22.1749 21.5873 21.6966C21.5842 21.5913 21.5244 21.5217 21.4386 21.4675C20.9464 21.1456 20.4665 20.8051 19.9529 20.5249C19.8487 20.1303 20.5831 20.8531 21.1519 21.0047C21.2899 21.0434 21.4064 21.2477 21.5336 21.1487C21.6379 21.0667 21.5336 20.8685 21.5551 20.7215C21.5812 20.559 21.5076 20.477 21.3635 20.4073C16.6489 18.0981 15.6937 17.9928 16.1261 17.8643C16.2763 17.9897 16.4726 17.999 16.6458 18.0686C16.9525 18.1894 17.2453 18.3488 17.5581 18.4448C20.5831 19.3781 21.3849 20.1132 22.268 19.8238C22.7801 19.6582 22.5517 19.7665 25.73 18.3813C27.3061 17.6925 26.8431 17.7978 26.8875 17.9541C25.9339 18.4386 24.5433 19.0314 22.2496 20.3717C22.0473 20.4893 21.9399 20.6008 21.9875 20.8329C22.0227 21.0047 21.8955 21.3267 22.2588 21.1363C23.8304 20.3113 23.6249 20.3052 23.6464 20.5188C21.618 21.856 22.0381 21.387 21.9905 22.3528C21.9752 22.7228 22.0197 22.6206 23.9683 21.7415C23.9683 21.8142 23.9407 21.8297 23.9116 21.8436C21.943 22.9193 21.9936 22.7057 21.9997 23.5152C21.9997 23.5477 21.9936 23.5787 21.9967 23.6112C22.0166 23.7861 22.2052 23.6808 22.2742 23.6561C24.6383 22.78 24.4298 22.5664 24.4636 22.8744C24.2336 22.9642 24.4513 22.8497 22.429 23.8712C21.9185 24.1297 22.0289 24.0507 22.0089 24.563C21.9936 24.9639 21.9399 24.8819 24.9879 23.3713C27.3506 22.2027 27.0455 22.3172 27.0194 22.4798C26.0473 23.0277 26.9979 22.455 22.2205 25.0815C22.0595 25.1713 21.9691 25.4004 22.035 25.5954C22.1638 25.9808 24.0665 25.0181 24.4329 24.8494C30.7619 21.938 30.6484 22.1362 30.6576 21.7291C30.7588 15.244 30.906 15.3864 30.5059 15.5628C21.7544 19.4477 22.2266 19.5947 21.2991 19.2945C21.0032 19.2001 20.925 19.1552 17.6623 17.8582C11.2505 15.3136 11.7994 15.4034 11.7028 15.7749C11.4499 16.7407 11.525 20.0374 11.5219 20.9537C11.5219 21.2725 11.5602 21.1812 14.2449 22.3807C22.13 25.9065 21.6563 25.7765 21.6747 25.5149C21.7253 24.837 21.7667 25.0444 18.4703 23.1236C18.1315 22.9255 18.0686 22.7228 20.744 24.2349C20.8958 24.3216 21.0691 24.368 21.2239 24.4485C21.6348 24.6683 21.6149 24.6714 21.6302 24.2225C21.6471 23.8248 21.5045 23.8495 20.0127 22.9162C19.5804 22.6454 19.6907 22.6036 19.8824 22.7119C20.2902 22.9425 20.6873 23.1871 21.1074 23.3914C21.2485 23.461 21.4232 23.639 21.5459 23.5632C21.7008 23.4703 21.5781 23.2351 21.6026 23.0633C21.6348 22.8652 21.5582 22.7228 21.3819 22.6144C20.8805 22.3111 20.4006 21.9582 19.8763 21.6703ZM30.2437 38.0007C30.3387 38.0193 30.2636 38.0487 31.9793 37.329C32.1586 37.2516 32.1494 37.1572 32.2798 36.1341C32.4561 34.7256 32.4085 34.7287 32.522 34.7287C32.6263 34.7287 32.6048 34.7256 32.5634 35.5382C32.4622 37.5673 32.4177 36.9745 32.982 36.8693C33.2917 36.812 33.3867 36.6015 33.3959 36.3214C33.4143 35.8153 33.8283 32.6501 34.5826 21.5403C35.1054 13.8711 35.0993 13.6065 34.7651 13.7783C34.3082 14.0104 33.7838 14.0847 33.3576 14.3896C33.2257 14.4856 33.3177 14.3014 31.8597 14.9344C31.7171 14.9948 31.5346 15.0118 31.4457 15.148C31.3491 15.2951 31.9762 17.044 30.2437 38.0007ZM9.58549 18.7001C9.46897 16.0024 9.43984 15.8584 9.4935 15.1712C9.5349 14.6512 9.5349 14.6512 9.04581 14.4732C8.61959 14.3169 8.62265 14.3169 8.54139 14.7858C8.1213 17.1617 8.41107 21.1007 8.53526 23.3651C8.90323 30.0793 9.90133 34.933 10.116 36.2068C10.1405 36.3539 10.2064 36.4328 10.3322 36.4839C11.4943 36.9498 11.5096 37.0318 11.482 36.6882C11.4115 35.9174 11.3993 35.1404 11.3042 34.3697C11.2674 34.0632 11.3456 34.0632 11.3579 34.1375C11.525 35.0321 11.6998 35.9267 11.85 36.8259C11.9175 37.2175 12.0739 37.2113 12.6273 37.4466C13.1594 37.6726 12.3621 37.0101 11.5127 30.3346C10.9393 25.809 10.7553 17.804 10.8688 15.6835C10.878 15.5179 11.0114 15.3369 10.904 15.1929C10.8059 15.0583 10.6081 15.0521 10.4502 14.9948C9.90746 14.7951 9.8814 14.3896 9.68362 18.307C9.68055 18.4417 9.68362 18.5779 9.58549 18.7001ZM1.32161 11.5944C0.676134 11.5773 0.846317 11.8033 0.849384 14.2116C0.849384 15.1836 1.0165 15.9668 1.76316 16.4992C3.00045 17.3752 5.96564 18.5918 7.37924 19.1258C7.82539 19.2945 7.68281 19.4957 7.63834 16.0426C7.61075 13.9191 8.04617 14.0785 7.55402 13.8835C3.94336 12.4348 2.14493 11.712 1.32161 11.5944ZM9.86913 10.1983C9.8308 10.0358 7.47736 9.25261 6.6755 8.81614C6.57584 8.76197 6.49919 8.79757 6.41179 8.83626C1.43966 10.918 1.43506 10.7152 2.13266 11.2183C2.69074 11.6191 2.67235 11.5557 7.784 13.6188C8.13356 13.7597 8.07377 13.5523 8.67938 13.2845C10.1436 12.636 11.0359 12.6035 10.4563 12.4627C7.38997 11.7213 7.4559 12.0401 9.71428 10.3515C9.77101 10.3066 9.85687 10.2943 9.86913 10.1983ZM33.1031 8.77899C33.1751 8.92139 33.0969 8.81305 33.8497 8.9152C35.7555 9.17058 36.0085 9.14736 36.1035 9.52966C36.1879 9.88719 35.8628 9.91195 34.302 11.4535C34.1594 11.5944 33.9923 11.664 33.7869 11.6377C32.9068 11.5294 32.0237 11.565 31.1406 11.565C30.029 11.5619 34.2698 12.4286 35.156 13.2087C35.2388 13.2814 35.2419 13.3015 36.1434 12.896C41.5448 10.4722 41.8729 10.7756 41.1155 10.4475C39.6866 9.82992 38.2546 9.22475 36.8073 8.65053C34.3327 7.66616 34.4186 7.65377 34.2852 7.78378C33.9141 8.14132 33.5446 8.5004 33.1031 8.77899ZM22.498 8.07786C22.498 6.79786 22.5808 6.8737 22.1392 6.8381C21.8142 6.81334 21.9062 6.79012 21.805 7.56091C21.7943 7.6321 21.7943 7.71414 21.6946 7.74354C21.5996 7.57174 21.621 7.37363 21.6057 7.18945C21.5674 6.80096 21.5735 6.80096 21.1887 6.80715C20.6812 6.81644 21.0537 6.88299 20.9817 8.03607C20.6659 7.74973 20.7732 6.81334 20.3914 6.94026C19.9866 7.07491 19.6156 7.26529 19.2998 7.55781C19.2109 7.64139 19.2017 7.70175 19.2676 7.80081C19.7797 8.5685 19.5543 10.4753 19.5052 11.3034C19.4792 11.7337 19.4638 11.7368 19.887 11.7786C20.3178 11.8234 20.1798 11.8714 20.4359 10.0079C20.442 9.95994 20.4159 9.87016 20.5463 9.881C20.5463 10.4506 20.5493 11.0232 20.5463 11.5944C20.5432 11.8575 20.5432 11.8606 20.7563 11.8869C21.0415 11.9225 21.0721 11.8993 21.1227 11.6454C21.2684 10.9087 21.2239 10.8809 21.3466 10.8994C21.391 11.7631 21.3343 11.9024 21.5965 11.9024C22.4643 11.8962 22.4014 11.9349 22.4076 11.6377C22.4137 11.2601 22.426 10.4212 22.426 9.78504C22.5363 9.86397 22.5302 9.94446 22.5394 10.0141C22.6084 10.463 22.6851 10.9149 22.7357 11.3668C22.7893 11.8544 22.7479 11.8962 23.3505 11.7724C23.6663 11.7089 23.4455 11.469 23.6034 11.291C23.6341 11.3452 23.654 11.3715 23.6632 11.3963C23.6939 11.4798 23.6786 11.6037 23.8135 11.6006C23.9055 11.6006 24.0757 11.421 24.0849 11.3235C24.0849 11.3204 23.7537 8.62577 24.3348 7.92463C24.4176 7.82557 24.3823 7.75902 24.2934 7.68628C24.022 7.4634 23.7261 7.27767 23.3949 7.16932C22.7985 6.97585 22.9304 6.85203 22.7127 7.50364C22.659 7.68318 22.6559 7.87975 22.498 8.07786ZM16.7762 7.65687C16.5385 7.34886 16.0617 6.64773 14.921 5.7392C14.7155 5.57668 14.8351 5.5968 12.7147 6.48831C13.8508 7.4603 15.1755 7.88594 16.5232 8.27443C15.8578 7.6352 15.0881 7.12599 14.4411 6.46664C16.3147 7.43709 17.2606 8.28835 16.7762 7.65687ZM14.2173 5.34761C14.2004 5.30273 14.1943 5.25629 14.1437 5.22689C13.5319 4.874 12.914 4.53659 12.198 4.44682C11.8224 4.39884 11.7151 4.4948 11.7274 4.86781C11.7396 5.23617 12.0141 5.68193 12.2318 5.976C12.3682 6.15709 12.3207 6.1153 14.2173 5.34761ZM29.6289 5.47298C30.8907 5.91874 30.8401 5.95279 31.021 5.79337C31.5316 5.33523 32.105 4.84459 32.2123 4.50099C32.2568 4.36014 32.2 4.29978 32.059 4.32609C31.5592 4.41122 30.5381 4.86316 29.7485 5.31666C29.6948 5.34142 29.6258 5.35999 29.6289 5.47298Z" fill="#8D40D7"/>
</g>
<path d="M42.063 31.4071C41.9971 31.4303 41.994 31.3854 41.991 31.3405C42.0692 31.3018 42.0906 31.325 42.063 31.4071Z" fill="#8D40D7"/>
<path d="M14.1666 26.0256C14.2111 26.0566 14.274 26.0659 14.2954 26.1231C14.2295 26.1974 14.1666 26.1046 14.1038 26.12C14.1038 26.0752 14.1191 26.0411 14.1666 26.0256Z" fill="#8D40D7"/>
<path d="M14.2862 26.1169C14.3215 26.1324 14.3874 26.1138 14.3552 26.1912C14.3108 26.1866 14.2571 26.1943 14.2862 26.1169Z" fill="#8D40D7"/>
<path d="M18.2082 22.9999C18.2833 22.8977 18.2526 22.8947 18.3308 22.9999C18.34 22.9891 18.363 22.9891 18.2082 22.9999Z" fill="#8D40D7"/>
<path d="M38.595 12.8448C38.6272 12.8046 38.5919 12.7751 38.5735 12.7426C38.6425 12.7473 38.7023 12.7272 38.759 12.6931C38.8096 12.9439 38.7728 12.7148 38.595 12.8448Z" fill="#8D40D7"/>
<path d="M28.7366 1.91455C28.7703 1.9811 28.6799 1.9811 28.6829 1.95634C28.6921 1.88824 28.7611 1.93622 28.7366 1.91455Z" fill="#8D40D7"/>
<path d="M26.1808 5.87083C26.2191 5.85381 26.2375 5.79963 26.2912 5.81356L26.285 5.80737C26.282 5.88631 26.3004 5.86774 26.1808 5.87083Z" fill="#8D40D7"/>
<path d="M28.588 2.02894C28.5756 2.00417 28.5725 2.00727 28.6005 2.01036L28.588 2.02894Z" fill="#8D40D7"/>
<path d="M25.5214 4.39868L25.6226 4.40178C25.5996 4.42345 25.5935 4.47143 25.5521 4.46524C25.5398 4.45904 25.5306 4.42035 25.5214 4.39868Z" fill="#8D40D7"/>
<path d="M15.87 2.78442C16.2165 3.31531 18.6589 6.3257 18.8705 6.58417C18.9594 6.69252 18.9242 6.79776 18.9518 6.90611C18.8981 7.00052 17.4538 5.61837 16.4343 3.91119C15.8976 3.01659 15.6493 2.78752 15.87 2.78442Z" fill="#8D40D7"/>
<path d="M16.5585 4.87086C15.775 4.21152 12.494 2.30932 13.5166 2.69781C15.7474 3.54134 16.3975 4.61548 16.6489 4.78109C16.6336 4.82598 16.6045 4.85693 16.5585 4.87086Z" fill="#8D40D7"/>
<path d="M33.4787 5.96502L33.3775 5.93097C33.4281 5.81024 33.5216 5.86442 33.4787 5.96502Z" fill="#8D40D7"/>
<path d="M23.165 10.3809C23.0944 9.72155 23.073 9.0653 23.1834 8.37964C23.375 8.68919 23.3689 10.0682 23.165 10.3809Z" fill="#8D40D7"/>
<path d="M56.384 37.654C55.096 37.542 54.298 37.192 53.99 36.604C53.682 36.016 53.528 35.26 53.528 34.336C53.528 33.328 53.738 32.096 54.158 30.64C54.578 29.156 55.096 27.546 55.712 25.81C56.356 24.074 57 22.338 57.644 20.602C57.308 20.63 56.944 20.672 56.552 20.728C56.188 20.756 55.726 20.812 55.166 20.896C54.606 20.952 53.878 21.05 52.982 21.19C53.038 20.462 53.304 19.902 53.78 19.51C54.284 19.09 54.942 18.782 55.754 18.586C56.566 18.39 57.476 18.278 58.484 18.25C59.268 16.094 60.066 13.994 60.878 11.95C61.718 9.878 62.544 7.988 63.356 6.28C63.076 6.252 62.796 6.238 62.516 6.238C62.264 6.21 61.998 6.196 61.718 6.196C59.926 6.196 58.54 6.378 57.56 6.742C56.58 7.106 55.908 7.666 55.544 8.422C55.18 9.178 54.998 10.144 54.998 11.32C54.998 11.936 55.04 12.51 55.124 13.042C55.208 13.546 55.348 14.078 55.544 14.638C54.592 14.47 53.892 14.106 53.444 13.546C52.996 12.958 52.772 12.23 52.772 11.362C52.772 9.906 53.29 8.632 54.326 7.54C55.362 6.42 56.748 5.552 58.484 4.936C60.248 4.292 62.194 3.97 64.322 3.97C65.806 3.97 67.234 4.082 68.606 4.306C70.006 4.502 71.364 4.6 72.68 4.6C73.268 4.6 73.8 4.572 74.276 4.516C74.78 4.432 75.284 4.32 75.788 4.18C74.752 5.356 73.884 6.14 73.184 6.532C72.484 6.924 71.77 7.12 71.042 7.12C70.398 7.12 69.558 7.036 68.522 6.868C67.514 6.672 66.366 6.518 65.078 6.406C64.714 7.33 64.308 8.45 63.86 9.766C63.412 11.054 62.95 12.44 62.474 13.924C61.998 15.38 61.522 16.836 61.046 18.292C62.446 18.376 63.762 18.502 64.994 18.67C66.254 18.838 67.388 18.936 68.396 18.964C68.172 19.3 67.906 19.566 67.598 19.762C67.318 19.93 66.912 20.056 66.38 20.14C65.848 20.224 65.106 20.294 64.154 20.35C63.23 20.378 61.984 20.406 60.416 20.434C60.248 21.022 60.038 21.722 59.786 22.534C59.534 23.346 59.31 24.116 59.114 24.844C58.918 25.572 58.764 26.104 58.652 26.44C58.036 28.596 57.504 30.612 57.056 32.488C56.636 34.364 56.412 36.086 56.384 37.654ZM73.2391 35.848C71.5311 35.848 70.2431 35.372 69.3751 34.42C68.5351 33.496 68.1151 32.348 68.1151 30.976C68.1151 29.716 68.4231 28.386 69.0391 26.986C69.6831 25.586 70.5231 24.27 71.5591 23.038C72.6231 21.806 73.7851 20.812 75.0451 20.056C76.3051 19.272 77.5511 18.88 78.7831 18.88C79.4271 18.88 80.0151 19.048 80.5471 19.384C81.1071 19.72 81.3871 20.406 81.3871 21.442C81.3871 22.506 81.0651 23.514 80.4211 24.466C79.8051 25.39 78.9791 26.216 77.9431 26.944C76.9351 27.672 75.8151 28.274 74.5831 28.75C73.3791 29.198 72.1751 29.478 70.9711 29.59C70.9151 29.87 70.8731 30.136 70.8451 30.388C70.8171 30.64 70.8031 30.878 70.8031 31.102C70.8031 31.522 70.8451 31.942 70.9291 32.362C71.0411 32.782 71.2231 33.174 71.4751 33.538C71.7271 33.874 72.0631 34.14 72.4831 34.336C72.9311 34.532 73.4771 34.63 74.1211 34.63C75.3251 34.63 76.5151 34.294 77.6911 33.622C78.8671 32.922 79.9591 32.012 80.9671 30.892C81.9751 29.772 82.8291 28.54 83.5291 27.196L84.0331 27.574C83.2771 29.254 82.3111 30.71 81.1351 31.942C79.9871 33.174 78.7271 34.126 77.3551 34.798C76.0111 35.498 74.6391 35.848 73.2391 35.848ZM71.1811 28.792C71.9371 28.54 72.7911 28.176 73.7431 27.7C74.6951 27.196 75.6051 26.608 76.4731 25.936C77.3691 25.264 78.0971 24.522 78.6571 23.71C79.2451 22.898 79.5391 22.044 79.5391 21.148C79.5391 20.84 79.4831 20.602 79.3711 20.434C79.2591 20.266 79.0211 20.182 78.6571 20.182C77.9851 20.182 77.2711 20.448 76.5151 20.98C75.7591 21.484 75.0311 22.156 74.3311 22.996C73.6311 23.836 73.0011 24.76 72.4411 25.768C71.8811 26.776 71.4611 27.784 71.1811 28.792ZM86.1755 35.26C84.9715 35.26 84.1035 34.84 83.5715 34C83.0675 33.188 82.8155 32.166 82.8155 30.934C82.8155 29.59 83.0675 27.994 83.5715 26.146C84.0755 24.298 84.7335 22.352 85.5455 20.308C86.3855 18.264 87.2955 16.276 88.2755 14.344C89.2555 12.384 90.2355 10.606 91.2155 9.01C92.1955 7.414 93.0915 6.14 93.9035 5.188C94.7435 4.236 95.4015 3.76 95.8775 3.76C96.1855 3.76 96.4375 3.942 96.6335 4.306C96.8295 4.642 96.9835 5.062 97.0955 5.566C97.2075 6.042 97.2635 6.476 97.2635 6.868C97.2635 7.624 97.0675 8.618 96.6755 9.85C96.3115 11.054 95.7795 12.412 95.0795 13.924C94.4075 15.408 93.5955 16.92 92.6435 18.46C91.7195 19.972 90.6975 21.428 89.5775 22.828C88.4855 24.228 87.3235 25.432 86.0915 26.44C85.9235 27.196 85.7835 27.938 85.6715 28.666C85.5875 29.366 85.5455 30.038 85.5455 30.682C85.5455 31.774 85.6995 32.586 86.0075 33.118C86.3155 33.65 86.7775 33.916 87.3935 33.916C88.1495 33.916 88.8915 33.58 89.6195 32.908C90.3755 32.236 91.0755 31.396 91.7195 30.388C92.3915 29.352 92.9655 28.288 93.4415 27.196L94.0715 27.532C92.9515 29.912 91.7335 31.802 90.4175 33.202C89.1015 34.574 87.6875 35.26 86.1755 35.26ZM86.4695 25.012C87.4495 24.032 88.4015 22.912 89.3255 21.652C90.2495 20.364 91.1035 19.034 91.8875 17.662C92.6995 16.29 93.4135 14.96 94.0295 13.672C94.6455 12.384 95.1215 11.236 95.4575 10.228C95.7935 9.192 95.9615 8.394 95.9615 7.834C95.9615 7.554 95.9195 7.372 95.8355 7.288C95.7795 7.204 95.7235 7.162 95.6675 7.162C95.4435 7.162 95.0515 7.526 94.4915 8.254C93.9595 8.954 93.3295 9.906 92.6015 11.11C91.8735 12.314 91.1315 13.686 90.3755 15.226C89.6195 16.766 88.8915 18.376 88.1915 20.056C87.5195 21.736 86.9455 23.388 86.4695 25.012ZM95.6392 35.092C94.5472 35.092 93.7352 34.742 93.2032 34.042C92.6712 33.37 92.4052 32.544 92.4052 31.564C92.4052 30.92 92.5172 30.108 92.7412 29.128C92.9932 28.148 93.3152 27.126 93.7072 26.062C94.0992 24.97 94.5472 23.948 95.0512 22.996C95.5832 22.044 96.1432 21.274 96.7312 20.686C97.3192 20.07 97.8932 19.762 98.4532 19.762C98.7052 19.762 98.9152 19.846 99.0832 20.014C99.2792 20.154 99.3772 20.378 99.3772 20.686C99.3772 21.022 99.1532 21.568 98.7052 22.324C98.2852 23.08 97.7812 23.948 97.1932 24.928C96.6052 25.908 96.0872 26.944 95.6392 28.036C95.2192 29.1 95.0092 30.122 95.0092 31.102C95.0092 32.11 95.1772 32.782 95.5132 33.118C95.8492 33.454 96.3672 33.622 97.0672 33.622C98.0192 33.622 99.0272 33.146 100.091 32.194C101.183 31.242 102.331 29.576 103.535 27.196L103.913 27.616C103.101 30.024 101.925 31.872 100.385 33.16C98.8732 34.448 97.2912 35.092 95.6392 35.092ZM100.679 15.856C100.231 15.856 99.8252 15.744 99.4612 15.52C99.1252 15.296 98.9572 14.946 98.9572 14.47C98.9572 13.882 99.2932 13.378 99.9652 12.958C100.665 12.51 101.351 12.286 102.023 12.286C102.443 12.286 102.779 12.384 103.031 12.58C103.283 12.776 103.409 13.112 103.409 13.588C103.409 14.12 103.115 14.638 102.527 15.142C101.967 15.618 101.351 15.856 100.679 15.856ZM107.24 36.352C105.896 36.352 104.776 35.904 103.88 35.008C102.984 34.112 102.536 32.768 102.536 30.976C102.536 29.576 102.802 28.218 103.334 26.902C103.894 25.558 104.622 24.354 105.518 23.29C106.414 22.226 107.408 21.386 108.5 20.77C109.592 20.126 110.67 19.804 111.734 19.804C112.882 19.804 113.666 20.14 114.086 20.812C114.506 21.484 114.716 22.184 114.716 22.912C114.716 23.724 114.52 24.438 114.128 25.054C113.764 25.67 113.26 25.978 112.616 25.978C112.14 25.978 111.734 25.768 111.398 25.348C111.818 25.124 112.182 24.676 112.49 24.004C112.798 23.304 112.952 22.646 112.952 22.03C112.952 21.694 112.882 21.442 112.742 21.274C112.63 21.078 112.392 20.98 112.028 20.98C111.272 20.98 110.488 21.316 109.676 21.988C108.892 22.66 108.15 23.528 107.45 24.592C106.778 25.656 106.218 26.776 105.77 27.952C105.35 29.128 105.14 30.234 105.14 31.27C105.14 32.138 105.35 32.936 105.77 33.664C106.19 34.392 107.002 34.756 108.206 34.756C109.326 34.756 110.446 34.448 111.566 33.832C112.714 33.216 113.778 32.334 114.758 31.186C115.738 30.038 116.522 28.694 117.11 27.154L117.656 27.574C117.012 29.254 116.13 30.766 115.01 32.11C113.89 33.426 112.658 34.462 111.314 35.218C109.97 35.974 108.612 36.352 107.24 36.352ZM119.346 35.092C118.254 35.092 117.442 34.742 116.91 34.042C116.378 33.37 116.112 32.544 116.112 31.564C116.112 30.92 116.224 30.108 116.448 29.128C116.7 28.148 117.022 27.126 117.414 26.062C117.806 24.97 118.254 23.948 118.758 22.996C119.29 22.044 119.85 21.274 120.438 20.686C121.026 20.07 121.6 19.762 122.16 19.762C122.412 19.762 122.622 19.846 122.79 20.014C122.986 20.154 123.084 20.378 123.084 20.686C123.084 21.022 122.86 21.568 122.412 22.324C121.992 23.08 121.488 23.948 120.9 24.928C120.312 25.908 119.794 26.944 119.346 28.036C118.926 29.1 118.716 30.122 118.716 31.102C118.716 32.11 118.884 32.782 119.22 33.118C119.556 33.454 120.074 33.622 120.774 33.622C121.726 33.622 122.734 33.146 123.798 32.194C124.89 31.242 126.038 29.576 127.242 27.196L127.62 27.616C126.808 30.024 125.632 31.872 124.092 33.16C122.58 34.448 120.998 35.092 119.346 35.092ZM124.386 15.856C123.938 15.856 123.532 15.744 123.168 15.52C122.832 15.296 122.664 14.946 122.664 14.47C122.664 13.882 123 13.378 123.672 12.958C124.372 12.51 125.058 12.286 125.73 12.286C126.15 12.286 126.486 12.384 126.738 12.58C126.99 12.776 127.116 13.112 127.116 13.588C127.116 14.12 126.822 14.638 126.234 15.142C125.674 15.618 125.058 15.856 124.386 15.856ZM130.023 35.932C128.819 35.932 127.895 35.582 127.251 34.882C126.607 34.182 126.285 33.146 126.285 31.774C126.285 30.542 126.509 29.03 126.957 27.238C127.433 25.418 128.021 23.556 128.721 21.652C128.441 21.596 128.175 21.554 127.923 21.526C127.671 21.47 127.433 21.4 127.209 21.316V20.56C127.433 20.588 127.699 20.616 128.007 20.644C128.315 20.672 128.665 20.7 129.057 20.728C129.645 19.216 130.275 17.76 130.947 16.36C131.619 14.932 132.277 13.672 132.921 12.58C133.593 11.46 134.223 10.578 134.811 9.934C135.427 9.262 135.945 8.926 136.365 8.926C136.589 8.926 136.785 9.01 136.953 9.178C137.149 9.318 137.247 9.542 137.247 9.85C137.247 10.326 136.953 11.11 136.365 12.202C135.777 13.266 135.049 14.54 134.181 16.024C133.313 17.508 132.473 19.118 131.661 20.854C131.913 20.854 132.165 20.854 132.417 20.854C132.697 20.854 132.963 20.854 133.215 20.854C134.139 20.854 135.105 20.84 136.113 20.812C137.149 20.784 138.185 20.714 139.221 20.602V21.358C137.681 21.526 136.295 21.652 135.063 21.736C133.859 21.82 132.781 21.862 131.829 21.862C131.717 21.862 131.605 21.862 131.493 21.862C131.409 21.862 131.311 21.862 131.199 21.862C130.555 23.346 130.009 24.872 129.561 26.44C129.113 28.008 128.889 29.534 128.889 31.018C128.889 32.222 129.071 33.09 129.435 33.622C129.799 34.126 130.401 34.378 131.241 34.378C132.697 34.378 134.125 33.734 135.525 32.446C136.925 31.158 138.157 29.408 139.221 27.196L139.767 27.616C139.095 29.184 138.241 30.598 137.205 31.858C136.197 33.118 135.077 34.112 133.845 34.84C132.613 35.568 131.339 35.932 130.023 35.932ZM140.446 35.974C139.578 35.974 138.85 35.68 138.262 35.092C137.646 34.532 137.338 33.664 137.338 32.488C137.338 31.48 137.562 30.402 138.01 29.254C138.458 28.078 139.074 26.93 139.858 25.81C140.642 24.662 141.524 23.626 142.504 22.702C143.512 21.75 144.562 20.994 145.654 20.434C146.774 19.874 147.88 19.594 148.972 19.594C150.064 19.594 150.974 19.888 151.702 20.476C152.43 21.036 152.794 21.792 152.794 22.744C152.794 23.444 152.598 23.92 152.206 24.172C151.842 24.424 151.352 24.55 150.736 24.55C150.792 24.326 150.834 24.088 150.862 23.836C150.918 23.556 150.946 23.304 150.946 23.08C150.946 22.436 150.792 21.89 150.484 21.442C150.176 20.966 149.644 20.728 148.888 20.728C148.104 20.728 147.306 21.008 146.494 21.568C145.682 22.1 144.898 22.828 144.142 23.752C143.386 24.648 142.714 25.628 142.126 26.692C141.538 27.756 141.076 28.806 140.74 29.842C140.404 30.878 140.236 31.802 140.236 32.614C140.236 33.706 140.614 34.252 141.37 34.252C142.014 34.252 142.714 33.958 143.47 33.37C144.226 32.754 144.996 31.984 145.78 31.06C146.592 30.108 147.362 29.128 148.09 28.12C148.818 27.112 149.462 26.188 150.022 25.348C150.134 25.18 150.204 25.096 150.232 25.096C150.4 25.124 150.61 25.18 150.862 25.264C151.142 25.348 151.38 25.46 151.576 25.6C151.772 25.74 151.87 25.922 151.87 26.146C151.87 26.398 151.744 26.748 151.492 27.196C151.24 27.616 150.96 28.106 150.652 28.666C150.344 29.226 150.064 29.8 149.812 30.388C149.56 30.948 149.434 31.48 149.434 31.984C149.434 32.404 149.546 32.824 149.77 33.244C149.994 33.636 150.358 33.832 150.862 33.832C151.618 33.832 152.612 33.286 153.844 32.194C155.076 31.074 156.322 29.408 157.582 27.196L158.002 27.616C157.414 29.128 156.658 30.458 155.734 31.606C154.81 32.754 153.816 33.65 152.752 34.294C151.716 34.938 150.694 35.26 149.686 35.26C148.65 35.26 147.88 34.952 147.376 34.336C146.9 33.72 146.662 33.048 146.662 32.32C146.662 32.152 146.676 31.97 146.704 31.774C146.732 31.55 146.76 31.326 146.788 31.102C145.584 32.726 144.478 33.944 143.47 34.756C142.49 35.568 141.482 35.974 140.446 35.974ZM152.08 16.78C151.464 15.968 150.778 15.17 150.022 14.386C149.266 13.602 148.384 12.776 147.376 11.908C147.432 11.404 147.544 11.068 147.712 10.9C147.88 10.704 148.076 10.606 148.3 10.606C148.72 10.606 149.182 10.816 149.686 11.236C150.19 11.656 150.666 12.174 151.114 12.79C151.562 13.378 151.926 13.952 152.206 14.512C152.514 15.044 152.668 15.436 152.668 15.688C152.668 15.8 152.626 15.982 152.542 16.234C152.458 16.486 152.304 16.668 152.08 16.78Z" fill="#8D40D7"/>
</svg>
