<svg width="25" height="25" viewBox="0 0 25 25" fill="none" xmlns="http://www.w3.org/2000/svg">
<path fill-rule="evenodd" clip-rule="evenodd" d="M22.0221 13.2353C21.6632 17.9191 17.9191 21.6618 13.2353 22.0221V19.1176H11.7647V22.0221C7.08088 21.6618 3.33823 17.9191 2.97941 13.2353H5.88236V11.7647H2.97941C3.33823 7.08088 7.08088 3.33823 11.7647 2.97794V5.88236H13.2353V2.97793C17.9191 3.33823 21.6632 7.08088 22.0221 11.7647H19.1176V13.2353H22.0221V13.2353ZM23.4926 11.7647C23.1279 6.27059 18.7309 1.87206 13.2353 1.50736V0H11.7647V1.50736C6.27059 1.87207 1.87353 6.27059 1.50882 11.7647H0V13.2353H1.50882C1.87353 18.7294 6.27059 23.1279 11.7647 23.4926V25H13.2353V23.4926C18.7309 23.1279 23.1279 18.7294 23.4926 13.2353H25V11.7647H23.4926V11.7647ZM12.5006 16.1765C10.4741 16.1765 8.82411 14.5265 8.82411 12.5C8.82411 10.4735 10.4741 8.82353 12.5006 8.82353C14.5271 8.82353 16.1771 10.4735 16.1771 12.5C16.1771 14.5265 14.5271 16.1765 12.5006 16.1765ZM12.5006 7.35294C9.66236 7.35294 7.35353 9.66177 7.35353 12.5C7.35353 15.3382 9.66236 17.6471 12.5006 17.6471C15.3388 17.6471 17.6476 15.3382 17.6476 12.5C17.6476 9.66177 15.3388 7.35294 12.5006 7.35294Z" fill="black"/>
</svg>
