<svg width="40" height="40" viewBox="0 0 40 40" fill="none" xmlns="http://www.w3.org/2000/svg">
<circle cx="20" cy="20" r="20" fill="black"/>
<circle cx="20" cy="20" r="19.5" stroke="black" stroke-opacity="0.05"/>
<path d="M28.9567 16.1861C28.8499 16.2529 26.3079 17.6637 26.3079 20.7918C26.4277 24.3591 29.5158 25.6102 29.5688 25.6102C29.5158 25.677 29.1025 27.3144 27.8784 29.0308C26.9069 30.5093 25.8286 32 24.1912 32C22.6337 32 22.0746 31.0146 20.2775 31.0146C18.3475 31.0146 17.8014 32 16.3238 32C14.6864 32 13.5282 30.4295 12.5038 28.9648C11.1729 27.0479 10.0416 24.0396 10.0017 21.1512C9.97477 19.6206 10.2682 18.116 11.0131 16.8381C12.0645 15.054 13.9415 13.8429 15.9913 13.8029C17.5618 13.75 18.9596 14.8812 19.9181 14.8812C20.8366 14.8812 22.5538 13.8029 24.4968 13.8029C25.3355 13.8038 27.5719 14.0564 28.9567 16.1861ZM19.7852 13.4973C19.5057 12.0996 20.2775 10.7018 20.9963 9.81016C21.9149 8.73188 23.3656 8 24.6166 8C24.6965 9.39777 24.1904 10.7686 23.2857 11.767C22.474 12.8453 21.0762 13.6571 19.7852 13.4973Z" fill="white"/>
</svg>
