<svg width="40" height="40" viewBox="0 0 40 40" fill="none" xmlns="http://www.w3.org/2000/svg">
<circle cx="20" cy="20" r="20" fill="#FBFCF9"/>
<circle cx="20" cy="20" r="19.5" stroke="black" stroke-opacity="0.3"/>
<path d="M30.56 20.25C30.56 19.47 30.49 18.72 30.36 18H20V22.26H25.92C25.66 23.63 24.88 24.79 23.71 25.57V28.34H27.28C29.36 26.42 30.56 23.6 30.56 20.25Z" fill="#4285F4"/>
<path d="M19.9999 31.0001C22.9699 31.0001 25.4599 30.0201 27.2799 28.3401L23.7099 25.5701C22.7299 26.2301 21.4799 26.6301 19.9999 26.6301C17.1399 26.6301 14.7099 24.7001 13.8399 22.1001H10.1799V24.9401C11.9899 28.5301 15.6999 31.0001 19.9999 31.0001Z" fill="#34A853"/>
<path d="M13.84 22.0901C13.62 21.4301 13.49 20.7301 13.49 20.0001C13.49 19.2701 13.62 18.5701 13.84 17.9101V15.0701H10.18C9.43 16.5501 9 18.2201 9 20.0001C9 21.7801 9.43 23.4501 10.18 24.9301L13.03 22.7101L13.84 22.0901Z" fill="#FBBC05"/>
<path d="M19.9999 13.38C21.6199 13.38 23.0599 13.94 24.2099 15.02L27.3599 11.87C25.4499 10.09 22.9699 9 19.9999 9C15.6999 9 11.9899 11.47 10.1799 15.07L13.8399 17.91C14.7099 15.31 17.1399 13.38 19.9999 13.38Z" fill="#EA4335"/>
</svg>
