<svg width="24" height="24" viewBox="0 0 24 24" fill="none" xmlns="http://www.w3.org/2000/svg">
<path d="M20.0384 16.857C22.5899 14.58 23.9999 12 23.9999 12C23.9999 12 19.4999 3.75 11.9999 3.75C10.5592 3.75377 9.13466 4.05399 7.81494 4.632L8.96994 5.7885C9.94153 5.43637 10.9665 5.25421 11.9999 5.25C15.1799 5.25 17.8184 7.002 19.7519 8.9355C20.6835 9.87012 21.5178 10.8969 22.2419 12C22.1559 12.13 22.0584 12.274 21.9494 12.432C21.4469 13.152 20.7044 14.112 19.7519 15.0645C19.5049 15.3125 19.2464 15.5555 18.9764 15.7935L20.0384 16.857Z" fill="#73797E" fill-opacity="0.5"/>
<path d="M16.9455 13.764C17.2803 12.8278 17.3423 11.8158 17.1243 10.8457C16.9063 9.87558 16.4174 8.98733 15.7143 8.28427C15.0113 7.58121 14.123 7.09225 13.1529 6.87429C12.1828 6.65632 11.1708 6.71831 10.2345 7.05304L11.469 8.28754C12.0455 8.20503 12.6333 8.25791 13.1858 8.44199C13.7382 8.62607 14.2403 8.93628 14.652 9.34806C15.0638 9.75984 15.374 10.2619 15.5581 10.8143C15.7422 11.3668 15.7951 11.9546 15.7125 12.531L16.9455 13.764ZM12.531 15.7125L13.764 16.9455C12.8278 17.2803 11.8158 17.3423 10.8457 17.1243C9.87558 16.9063 8.98733 16.4174 8.28427 15.7143C7.58121 15.0113 7.09225 14.123 6.87429 13.1529C6.65632 12.1828 6.71831 11.1708 7.05304 10.2345L8.28754 11.469C8.20503 12.0455 8.25791 12.6333 8.44199 13.1858C8.62607 13.7382 8.93628 14.2403 9.34806 14.652C9.75984 15.0638 10.2619 15.374 10.8143 15.5581C11.3668 15.7422 11.9546 15.7951 12.531 15.7125Z" fill="#73797E" fill-opacity="0.5"/>
<path d="M5.025 8.20499C4.755 8.44499 4.496 8.68849 4.248 8.93549C3.31645 9.87011 2.48217 10.8969 1.758 12L2.0505 12.432C2.553 13.152 3.2955 14.112 4.248 15.0645C6.1815 16.998 8.8215 18.75 12 18.75C13.074 18.75 14.085 18.5505 15.03 18.21L16.185 19.368C14.8653 19.946 13.4407 20.2462 12 20.25C4.5 20.25 0 12 0 12C0 12 1.4085 9.41849 3.9615 7.14299L5.0235 8.20649L5.025 8.20499ZM20.469 21.531L2.469 3.53099L3.531 2.46899L21.531 20.469L20.469 21.531Z" fill="#73797E" fill-opacity="0.5"/>
</svg>
