<svg width="30" height="30" viewBox="0 0 30 30" fill="none" xmlns="http://www.w3.org/2000/svg">
<g clip-path="url(#clip0_35_299)">
<path d="M15.3488 2.08686C15.1249 1.99715 14.8751 1.99715 14.6512 2.08686L3.46125 6.56249L7.96875 8.36436L19.5075 3.74999L15.3488 2.08686ZM22.0312 4.76061L10.4925 9.37499L15 11.1769L26.5387 6.56249L22.0312 4.76061ZM28.125 7.94811L15.9375 12.8231V27.6769L28.125 22.8019V7.94811ZM14.0625 27.6787V12.8212L1.875 7.94811V22.8037L14.0625 27.6787ZM13.9556 0.344985C14.6261 0.0768588 15.3739 0.0768588 16.0444 0.344985L29.4112 5.69249C29.585 5.76213 29.734 5.88222 29.8389 6.03728C29.9439 6.19234 30 6.37526 30 6.56249V22.8037C29.9998 23.1784 29.8873 23.5444 29.6771 23.8545C29.4669 24.1647 29.1686 24.4047 28.8206 24.5437L15.3488 29.9325C15.1249 30.0222 14.8751 30.0222 14.6512 29.9325L1.18125 24.5437C0.832971 24.405 0.534267 24.1651 0.323704 23.8549C0.113141 23.5448 0.000386867 23.1786 0 22.8037L0 6.56249C4.35749e-05 6.37526 0.0561445 6.19234 0.161076 6.03728C0.266007 5.88222 0.414961 5.76213 0.58875 5.69249L13.9556 0.344985Z" fill="#FBFCF9"/>
</g>
<defs>
<clipPath id="clip0_35_299">
<rect width="30" height="30" fill="white"/>
</clipPath>
</defs>
</svg>
