<svg width="30" height="30" viewBox="0 0 30 30" fill="none" xmlns="http://www.w3.org/2000/svg">
<circle cx="15" cy="15" r="15" fill="#FBFCF8"/>
<g clip-path="url(#clip0_35_352)">
<path d="M25 15.0612C25 9.50375 20.5225 4.99875 15 4.99875C9.475 5 4.9975 9.50375 4.9975 15.0625C4.9975 20.0837 8.655 24.2462 13.435 25.0012V17.97H10.8975V15.0625H13.4375V12.8437C13.4375 10.3225 14.9312 8.93 17.215 8.93C18.31 8.93 19.4537 9.12625 19.4537 9.12625V11.6012H18.1925C16.9512 11.6012 16.5637 12.3775 16.5637 13.1737V15.0612H19.3362L18.8937 17.9687H16.5625V25C21.3425 24.245 25 20.0825 25 15.0612Z" fill="#8D40D7"/>
</g>
<defs>
<clipPath id="clip0_35_352">
<rect width="20" height="20" fill="white" transform="translate(5 5)"/>
</clipPath>
</defs>
</svg>
