<svg width="30" height="30" viewBox="0 0 30 30" fill="none" xmlns="http://www.w3.org/2000/svg">
<circle cx="15" cy="15" r="15" fill="#FBFCF8"/>
<g clip-path="url(#clip0_35_348)">
<path d="M15 5C12.2863 5 11.945 5.0125 10.8787 5.06C9.8125 5.11 9.08625 5.2775 8.45 5.525C7.78231 5.77541 7.17768 6.16925 6.67875 6.67875C6.16925 7.17768 5.77541 7.78231 5.525 8.45C5.2775 9.085 5.10875 9.8125 5.06 10.875C5.0125 11.9437 5 12.2838 5 15.0013C5 17.7163 5.0125 18.0563 5.06 19.1225C5.11 20.1875 5.2775 20.9137 5.525 21.55C5.78125 22.2075 6.1225 22.765 6.67875 23.3212C7.23375 23.8775 7.79125 24.22 8.44875 24.475C9.08625 24.7225 9.81125 24.8912 10.8763 24.94C11.9438 24.9875 12.2838 25 15 25C17.7163 25 18.055 24.9875 19.1225 24.94C20.1863 24.89 20.915 24.7225 21.5513 24.475C22.2185 24.2244 22.8227 23.8306 23.3212 23.3212C23.8775 22.765 24.2188 22.2075 24.475 21.55C24.7213 20.9137 24.89 20.1875 24.94 19.1225C24.9875 18.0563 25 17.7163 25 15C25 12.2838 24.9875 11.9438 24.94 10.8763C24.89 9.8125 24.7213 9.085 24.475 8.45C24.2246 7.78231 23.8308 7.17768 23.3212 6.67875C22.8223 6.16925 22.2177 5.77541 21.55 5.525C20.9125 5.2775 20.185 5.10875 19.1213 5.06C18.0538 5.0125 17.715 5 14.9975 5H15ZM14.1038 6.8025H15.0013C17.6713 6.8025 17.9875 6.81125 19.0413 6.86C20.0162 6.90375 20.5462 7.0675 20.8988 7.20375C21.365 7.385 21.6987 7.6025 22.0487 7.9525C22.3988 8.3025 22.615 8.635 22.7963 9.1025C22.9338 9.45375 23.0963 9.98375 23.14 10.9588C23.1887 12.0125 23.1987 12.3288 23.1987 14.9975C23.1987 17.6663 23.1887 17.9837 23.14 19.0375C23.0963 20.0125 22.9325 20.5413 22.7963 20.8938C22.6348 21.3274 22.3791 21.7197 22.0475 22.0425C21.6975 22.3925 21.365 22.6088 20.8975 22.79C20.5475 22.9275 20.0175 23.09 19.0413 23.135C17.9875 23.1825 17.6713 23.1938 15.0013 23.1938C12.3313 23.1938 12.0138 23.1825 10.96 23.135C9.985 23.09 9.45625 22.9275 9.10375 22.79C8.66979 22.6291 8.277 22.3738 7.95375 22.0425C7.62159 21.7195 7.36541 21.3267 7.20375 20.8925C7.0675 20.5412 6.90375 20.0113 6.86 19.0363C6.8125 17.9825 6.8025 17.6663 6.8025 14.995C6.8025 12.3237 6.8125 12.01 6.86 10.9562C6.905 9.98125 7.0675 9.45125 7.205 9.09875C7.38625 8.6325 7.60375 8.29875 7.95375 7.94875C8.30375 7.59875 8.63625 7.3825 9.10375 7.20125C9.45625 7.06375 9.985 6.90125 10.96 6.85625C11.8825 6.81375 12.24 6.80125 14.1038 6.8V6.8025ZM20.3387 8.4625C20.1812 8.4625 20.0251 8.49354 19.8795 8.55384C19.7339 8.61415 19.6017 8.70254 19.4902 8.81397C19.3788 8.9254 19.2904 9.05769 19.2301 9.20328C19.1698 9.34887 19.1388 9.50491 19.1388 9.6625C19.1388 9.82009 19.1698 9.97613 19.2301 10.1217C19.2904 10.2673 19.3788 10.3996 19.4902 10.511C19.6017 10.6225 19.7339 10.7108 19.8795 10.7712C20.0251 10.8315 20.1812 10.8625 20.3387 10.8625C20.657 10.8625 20.9622 10.7361 21.1873 10.511C21.4123 10.286 21.5387 9.98076 21.5387 9.6625C21.5387 9.34424 21.4123 9.03902 21.1873 8.81397C20.9622 8.58893 20.657 8.4625 20.3387 8.4625ZM15.0013 9.865C14.3201 9.85437 13.6436 9.97936 13.0112 10.2327C12.3788 10.486 11.8031 10.8626 11.3177 11.3405C10.8322 11.8185 10.4467 12.3882 10.1836 13.0166C9.9204 13.6449 9.78488 14.3194 9.78488 15.0006C9.78488 15.6819 9.9204 16.3563 10.1836 16.9847C10.4467 17.613 10.8322 18.1828 11.3177 18.6607C11.8031 19.1387 12.3788 19.5153 13.0112 19.7686C13.6436 20.0219 14.3201 20.1469 15.0013 20.1363C16.3494 20.1152 17.6353 19.5649 18.5812 18.6041C19.5272 17.6432 20.0574 16.349 20.0574 15.0006C20.0574 13.6523 19.5272 12.358 18.5812 11.3972C17.6353 10.4364 16.3494 9.88603 15.0013 9.865ZM15.0013 11.6663C15.439 11.6663 15.8726 11.7525 16.277 11.92C16.6815 12.0876 17.049 12.3331 17.3586 12.6427C17.6681 12.9523 17.9137 13.3198 18.0812 13.7242C18.2488 14.1287 18.335 14.5622 18.335 15C18.335 15.4378 18.2488 15.8713 18.0812 16.2758C17.9137 16.6802 17.6681 17.0477 17.3586 17.3573C17.049 17.6669 16.6815 17.9124 16.277 18.08C15.8726 18.2475 15.439 18.3337 15.0013 18.3337C14.1171 18.3337 13.2691 17.9825 12.6439 17.3573C12.0187 16.7321 11.6675 15.8842 11.6675 15C11.6675 14.1158 12.0187 13.2679 12.6439 12.6427C13.2691 12.0175 14.1171 11.6663 15.0013 11.6663Z" fill="#8D40D7"/>
</g>
<defs>
<clipPath id="clip0_35_348">
<rect width="20" height="20" fill="white" transform="translate(5 5)"/>
</clipPath>
</defs>
</svg>
