<svg width="30" height="30" viewBox="0 0 30 30" fill="none" xmlns="http://www.w3.org/2000/svg">
<circle cx="15" cy="15" r="15" fill="#FBFCF8"/>
<g clip-path="url(#clip0_35_356)">
<path d="M22.0012 7.90757C21.0845 6.98194 19.9926 6.24813 18.7893 5.74894C17.586 5.24975 16.2953 4.99517 14.9925 5.00007C9.53375 5.00007 5.085 9.44757 5.08 14.9076C5.08 16.6563 5.5375 18.3576 6.40125 19.8638L5 25.0001L10.255 23.6226C11.7081 24.4154 13.3372 24.8302 14.9925 24.8288H14.9975C20.4575 24.8288 24.905 20.3813 24.91 14.9163C24.9111 13.6139 24.6546 12.3241 24.1551 11.1212C23.6557 9.91838 22.9245 8.82619 22.0012 7.90757ZM14.9925 23.1513C13.5165 23.1502 12.0678 22.753 10.7975 22.0013L10.4975 21.8213L7.38 22.6388L8.2125 19.5976L8.0175 19.2838C7.19226 17.9717 6.75581 16.4526 6.75875 14.9026C6.75875 10.3701 10.455 6.67257 14.9975 6.67257C16.0797 6.67063 17.1515 6.88291 18.1513 7.29718C19.151 7.71145 20.0589 8.31952 20.8225 9.08632C21.5886 9.85025 22.196 10.7582 22.6096 11.758C23.0232 12.7577 23.2349 13.8294 23.2325 14.9113C23.2275 19.4601 19.5312 23.1513 14.9925 23.1513ZM19.5113 16.9838C19.265 16.8601 18.0487 16.2613 17.82 16.1763C17.5925 16.0951 17.4262 16.0526 17.2638 16.3001C17.0975 16.5463 16.6225 17.1076 16.48 17.2688C16.3375 17.4351 16.19 17.4538 15.9425 17.3313C15.6962 17.2063 14.8975 16.9463 13.9525 16.1001C13.215 15.4438 12.7213 14.6313 12.5738 14.3851C12.4313 14.1376 12.56 14.0051 12.6837 13.8813C12.7925 13.7713 12.93 13.5913 13.0538 13.4488C13.1788 13.3063 13.22 13.2013 13.3012 13.0363C13.3825 12.8688 13.3438 12.7263 13.2825 12.6026C13.22 12.4788 12.7262 11.2576 12.5175 10.7651C12.3175 10.2788 12.1137 10.3463 11.9612 10.3401C11.8187 10.3313 11.6525 10.3313 11.4862 10.3313C11.3607 10.3345 11.2372 10.3636 11.1234 10.4167C11.0096 10.4698 10.908 10.5459 10.825 10.6401C10.5975 10.8876 9.96125 11.4863 9.96125 12.7076C9.96125 13.9288 10.8487 15.1026 10.9737 15.2688C11.0962 15.4351 12.7162 17.9338 15.2025 19.0088C15.79 19.2651 16.2525 19.4163 16.6138 19.5313C17.2075 19.7213 17.7437 19.6926 18.1712 19.6313C18.6462 19.5588 19.635 19.0313 19.8438 18.4526C20.0487 17.8726 20.0488 17.3776 19.9862 17.2738C19.925 17.1688 19.7587 17.1076 19.5113 16.9838Z" fill="#8D40D7"/>
</g>
<defs>
<clipPath id="clip0_35_356">
<rect width="20" height="20" fill="white" transform="translate(5 5)"/>
</clipPath>
</defs>
</svg>
