<svg width="30" height="30" viewBox="0 0 30 30" fill="none" xmlns="http://www.w3.org/2000/svg">
<g clip-path="url(#clip0_35_275)">
<path d="M5.8125 1.3125C5.89983 1.19607 6.01306 1.10156 6.14324 1.03647C6.27341 0.971386 6.41696 0.9375 6.5625 0.9375H23.4375C23.583 0.9375 23.7266 0.971386 23.8568 1.03647C23.9869 1.10156 24.1002 1.19607 24.1875 1.3125L29.7675 8.76375C30.0469 9.11062 30.06 9.6075 29.7862 9.97125L15.75 28.6875C15.6627 28.8039 15.5494 28.8984 15.4193 28.9635C15.2891 29.0286 15.1455 29.0625 15 29.0625C14.8545 29.0625 14.7109 29.0286 14.5807 28.9635C14.4506 28.8984 14.3373 28.8039 14.25 28.6875L0.1875 9.9375C0.0657917 9.77522 0 9.57785 0 9.375C0 9.17215 0.0657917 8.97478 0.1875 8.8125L5.8125 1.3125ZM27.1613 8.40938L23.775 3.89062L22.32 8.415L27.1613 8.40938ZM20.3494 8.41687L22.1513 2.8125H7.84875L9.65438 8.42812L20.3494 8.41687ZM10.2562 10.3031L15 25.0613L19.7475 10.2937L10.2562 10.3031ZM7.68563 8.43L6.22312 3.88875L2.81438 8.43563L7.68563 8.43ZM2.81062 10.3125L12.3975 23.0944L8.2875 10.3069L2.81062 10.3125ZM17.6025 23.0944L27.2081 10.2881L21.7181 10.2919L17.6025 23.0944Z" fill="#FBFCF9"/>
</g>
<defs>
<clipPath id="clip0_35_275">
<rect width="30" height="30" fill="white"/>
</clipPath>
</defs>
</svg>
