<svg width="28" height="28" viewBox="0 0 28 28" fill="none" xmlns="http://www.w3.org/2000/svg">
<path d="M14 14C15.8565 14 17.637 13.2625 18.9497 11.9497C20.2625 10.637 21 8.85651 21 7C21 5.14348 20.2625 3.36301 18.9497 2.05025C17.637 0.737498 15.8565 0 14 0C12.1435 0 10.363 0.737498 9.05025 2.05025C7.7375 3.36301 7 5.14348 7 7C7 8.85651 7.7375 10.637 9.05025 11.9497C10.363 13.2625 12.1435 14 14 14ZM18.6667 7C18.6667 8.23768 18.175 9.42466 17.2998 10.2998C16.4247 11.175 15.2377 11.6667 14 11.6667C12.7623 11.6667 11.5753 11.175 10.7002 10.2998C9.825 9.42466 9.33333 8.23768 9.33333 7C9.33333 5.76232 9.825 4.57534 10.7002 3.70017C11.5753 2.825 12.7623 2.33333 14 2.33333C15.2377 2.33333 16.4247 2.825 17.2998 3.70017C18.175 4.57534 18.6667 5.76232 18.6667 7ZM28 25.6667C28 28 25.6667 28 25.6667 28H2.33333C2.33333 28 0 28 0 25.6667C0 23.3333 2.33333 16.3333 14 16.3333C25.6667 16.3333 28 23.3333 28 25.6667ZM25.6667 25.6573C25.6643 25.0833 25.3073 23.3567 23.7253 21.7747C22.204 20.2533 19.341 18.6667 14 18.6667C8.659 18.6667 5.796 20.2533 4.27467 21.7747C2.69267 23.3567 2.338 25.0833 2.33333 25.6573H25.6667Z" fill="#4B4B4B"/>
</svg>
