<svg width="18" height="18" viewBox="0 0 18 18" fill="none" xmlns="http://www.w3.org/2000/svg">
<g clip-path="url(#clip0_16_114)">
<path d="M13.2097 11.6371C14.2991 10.1506 14.787 8.30766 14.5758 6.47691C14.3647 4.64615 13.4701 2.96262 12.071 1.76313C10.6719 0.563649 8.87144 -0.0633329 7.02991 0.00762436C5.18839 0.0785817 3.44156 0.842245 2.1389 2.14583C0.836243 3.44942 0.0738293 5.1968 0.00418975 7.03838C-0.0654498 8.87995 0.56282 10.6799 1.76331 12.0782C2.96379 13.4764 4.64796 14.3698 6.47887 14.5796C8.30978 14.7895 10.1524 14.3003 11.6381 13.2099H11.637C11.67 13.2549 11.7067 13.298 11.7472 13.3392L16.0785 17.6705C16.2894 17.8816 16.5756 18.0002 16.874 18.0003C17.1724 18.0004 17.4587 17.882 17.6698 17.6711C17.8809 17.4601 17.9995 17.1739 17.9996 16.8755C17.9997 16.5771 17.8813 16.2908 17.6703 16.0797L13.3391 11.7485C13.2989 11.7078 13.2556 11.6713 13.2097 11.6371ZM13.5 7.31261C13.5 8.12517 13.3399 8.92976 13.029 9.68047C12.718 10.4312 12.2623 11.1133 11.6877 11.6878C11.1131 12.2624 10.431 12.7182 9.68033 13.0291C8.92962 13.3401 8.12503 13.5001 7.31247 13.5001C6.49992 13.5001 5.69532 13.3401 4.94462 13.0291C4.19392 12.7182 3.51181 12.2624 2.93725 11.6878C2.36269 11.1133 1.90692 10.4312 1.59597 9.68047C1.28502 8.92976 1.12497 8.12517 1.12497 7.31261C1.12497 5.67159 1.77687 4.09777 2.93725 2.93739C4.09763 1.77701 5.67145 1.12511 7.31247 1.12511C8.9535 1.12511 10.5273 1.77701 11.6877 2.93739C12.8481 4.09777 13.5 5.67159 13.5 7.31261Z" fill="#F1F3F5"/>
</g>
<defs>
<clipPath id="clip0_16_114">
<rect width="18" height="18" fill="white"/>
</clipPath>
</defs>
</svg>
