<svg width="24" height="24" viewBox="0 0 24 24" fill="none" xmlns="http://www.w3.org/2000/svg">
<circle cx="12" cy="12" r="12" fill="#FBFCF9"/>
<g clip-path="url(#clip0_8_32)">
<path d="M20 12.049C20 7.60302 16.418 3.99902 12 3.99902C7.57999 4.00002 3.99799 7.60302 3.99799 12.05C3.99799 16.067 6.92399 19.397 10.748 20.001V14.376H8.71799V12.05H10.75V10.275C10.75 8.25802 11.945 7.14402 13.772 7.14402C14.648 7.14402 15.563 7.30102 15.563 7.30102V9.28102H14.554C13.561 9.28102 13.251 9.90202 13.251 10.539V12.049H15.469L15.115 14.375H13.25V20C17.074 19.396 20 16.066 20 12.049Z" fill="#8D40D7"/>
</g>
<defs>
<clipPath id="clip0_8_32">
<rect width="16" height="16" fill="white" transform="translate(4 4)"/>
</clipPath>
</defs>
</svg>
