<svg width="26" height="28" viewBox="0 0 26 28" fill="none" xmlns="http://www.w3.org/2000/svg">
<path d="M13 1.75C13.9283 1.75 14.8185 2.11875 15.4749 2.77513C16.1313 3.4315 16.5 4.32174 16.5 5.25V8.75H9.50001V5.25C9.50001 4.32174 9.86876 3.4315 10.5251 2.77513C11.1815 2.11875 12.0718 1.75 13 1.75ZM18.25 8.75V5.25C18.25 3.85761 17.6969 2.52226 16.7123 1.53769C15.7278 0.553123 14.3924 0 13 0C11.6076 0 10.2723 0.553123 9.2877 1.53769C8.30314 2.52226 7.75001 3.85761 7.75001 5.25V8.75H4.88001C4.25154 8.75014 3.64398 8.97575 3.16774 9.38584C2.6915 9.79592 2.37819 10.3633 2.28476 10.9847L0.487512 22.9775C0.39439 23.5998 0.436586 24.2348 0.61122 24.8393C0.785854 25.4438 1.08882 26.0035 1.49944 26.4802C1.91007 26.9569 2.41869 27.3395 2.99062 27.6018C3.56254 27.864 4.18431 27.9999 4.81351 28H21.1848C21.8141 28.0001 22.4361 27.8645 23.0082 27.6023C23.5804 27.3401 24.0892 26.9576 24.5 26.4809C24.9108 26.0041 25.2139 25.4443 25.3887 24.8397C25.5634 24.2351 25.6057 23.5999 25.5125 22.9775L23.7135 10.9847C23.6201 10.3636 23.3071 9.79646 22.8312 9.38641C22.3553 8.97636 21.7482 8.75056 21.12 8.75H18.25ZM16.5 10.5V13.125C16.5 13.3571 16.5922 13.5796 16.7563 13.7437C16.9204 13.9078 17.1429 14 17.375 14C17.6071 14 17.8296 13.9078 17.9937 13.7437C18.1578 13.5796 18.25 13.3571 18.25 13.125V10.5H21.1183C21.3277 10.5002 21.5302 10.5756 21.6888 10.7124C21.8475 10.8492 21.9518 11.0383 21.9828 11.2455L23.7818 23.2348C23.8379 23.6082 23.8128 23.9894 23.7082 24.3523C23.6035 24.7151 23.4218 25.0512 23.1755 25.3374C22.9291 25.6236 22.6239 25.8534 22.2806 26.0108C21.9374 26.1683 21.5642 26.2499 21.1865 26.25H4.81351C4.43585 26.2499 4.06265 26.1683 3.7194 26.0108C3.37615 25.8534 3.07092 25.6236 2.82455 25.3374C2.57819 25.0512 2.39648 24.7151 2.29185 24.3523C2.18722 23.9894 2.16212 23.6082 2.21826 23.2348L4.01726 11.2455C4.04822 11.0386 4.15226 10.8497 4.31053 10.7129C4.46881 10.5762 4.67084 10.5006 4.88001 10.5H7.75001V13.125C7.75001 13.3571 7.8422 13.5796 8.00629 13.7437C8.17039 13.9078 8.39295 14 8.62501 14C8.85708 14 9.07964 13.9078 9.24373 13.7437C9.40782 13.5796 9.50001 13.3571 9.50001 13.125V10.5H16.5Z" fill="#4B4B4B"/>
</svg>
