<svg width="30" height="30" viewBox="0 0 30 30" fill="none" xmlns="http://www.w3.org/2000/svg">
<rect width="30" height="30" rx="15" fill="#36D681"/>
<g clip-path="url(#clip0_48_396)">
<path d="M18.4355 17.3121C19.2136 16.2503 19.5621 14.9339 19.4113 13.6263C19.2605 12.3186 18.6215 11.1161 17.6221 10.2593C16.6228 9.4025 15.3368 8.95466 14.0214 9.00534C12.706 9.05603 11.4583 9.6015 10.5278 10.5326C9.59733 11.4638 9.05274 12.7119 9.003 14.0273C8.95326 15.3427 9.40202 16.6284 10.2595 17.6272C11.117 18.6259 12.32 19.264 13.6278 19.4139C14.9356 19.5638 16.2517 19.2144 17.3129 18.4355H17.3121C17.3357 18.4677 17.362 18.4985 17.3909 18.5279L20.4846 21.6217C20.6353 21.7725 20.8397 21.8572 21.0529 21.8573C21.266 21.8574 21.4705 21.7727 21.6213 21.6221C21.7721 21.4714 21.8568 21.267 21.8569 21.0538C21.857 20.8407 21.7724 20.6362 21.6217 20.4854L18.5279 17.3917C18.4992 17.3626 18.4683 17.3365 18.4355 17.3121ZM18.6428 14.2232C18.6428 14.8036 18.5285 15.3783 18.3064 15.9145C18.0843 16.4507 17.7588 16.9379 17.3484 17.3483C16.938 17.7588 16.4507 18.0843 15.9145 18.3064C15.3783 18.5285 14.8036 18.6428 14.2232 18.6428C13.6428 18.6428 13.0681 18.5285 12.5319 18.3064C11.9957 18.0843 11.5084 17.7588 11.098 17.3483C10.6876 16.9379 10.3621 16.4507 10.14 15.9145C9.91788 15.3783 9.80356 14.8036 9.80356 14.2232C9.80356 13.051 10.2692 11.9269 11.098 11.098C11.9269 10.2692 13.051 9.80355 14.2232 9.80355C15.3954 9.80355 16.5195 10.2692 17.3484 11.098C18.1772 11.9269 18.6428 13.051 18.6428 14.2232Z" fill="#F1F3F5"/>
</g>
<defs>
<clipPath id="clip0_48_396">
<rect width="12.8571" height="12.8571" fill="white" transform="translate(9 9)"/>
</clipPath>
</defs>
</svg>
