<svg width="24" height="24" viewBox="0 0 24 24" fill="none" xmlns="http://www.w3.org/2000/svg">
<circle cx="12" cy="12" r="12" fill="#FBFCF9"/>
<g clip-path="url(#clip0_8_38)">
<path d="M17.601 6.32606C16.8676 5.58555 15.9941 4.9985 15.0314 4.59915C14.0688 4.1998 13.0362 3.99614 11.994 4.00006C7.627 4.00006 4.068 7.55806 4.064 11.9261C4.064 13.3251 4.43 14.6861 5.121 15.8911L4 20.0001L8.204 18.8981C9.36649 19.5323 10.6698 19.8641 11.994 19.8631H11.998C16.366 19.8631 19.924 16.3051 19.928 11.9331C19.9289 10.8911 19.7237 9.85929 19.3241 8.897C18.9246 7.9347 18.3396 7.06095 17.601 6.32606ZM11.994 18.5211C10.8132 18.5201 9.65422 18.2024 8.638 17.6011L8.398 17.4571L5.904 18.1111L6.57 15.6781L6.414 15.4271C5.75381 14.3774 5.40465 13.1621 5.407 11.9221C5.407 8.29606 8.364 5.33806 11.998 5.33806C12.8637 5.3365 13.7212 5.50633 14.521 5.83775C15.3208 6.16916 16.0471 6.65562 16.658 7.26906C17.2709 7.8802 17.7568 8.6066 18.0877 9.40638C18.4186 10.2062 18.5879 11.0635 18.586 11.9291C18.582 15.5681 15.625 18.5211 11.994 18.5211ZM15.609 13.5871C15.412 13.4881 14.439 13.0091 14.256 12.9411C14.074 12.8761 13.941 12.8421 13.811 13.0401C13.678 13.2371 13.298 13.6861 13.184 13.8151C13.07 13.9481 12.952 13.9631 12.754 13.8651C12.557 13.7651 11.918 13.5571 11.162 12.8801C10.572 12.3551 10.177 11.7051 10.059 11.5081C9.945 11.3101 10.048 11.2041 10.147 11.1051C10.234 11.0171 10.344 10.8731 10.443 10.7591C10.543 10.6451 10.576 10.5611 10.641 10.4291C10.706 10.2951 10.675 10.1811 10.626 10.0821C10.576 9.98306 10.181 9.00606 10.014 8.61206C9.854 8.22306 9.691 8.27706 9.569 8.27206C9.455 8.26506 9.322 8.26506 9.189 8.26506C9.08857 8.26761 8.98976 8.29087 8.89873 8.33337C8.80771 8.37587 8.72643 8.4367 8.66 8.51206C8.478 8.71006 7.969 9.18906 7.969 10.1661C7.969 11.1431 8.679 12.0821 8.779 12.2151C8.877 12.3481 10.173 14.3471 12.162 15.2071C12.632 15.4121 13.002 15.5331 13.291 15.6251C13.766 15.7771 14.195 15.7541 14.537 15.7051C14.917 15.6471 15.708 15.2251 15.875 14.7621C16.039 14.2981 16.039 13.9021 15.989 13.8191C15.94 13.7351 15.807 13.6861 15.609 13.5871Z" fill="#8D40D7"/>
</g>
<defs>
<clipPath id="clip0_8_38">
<rect width="16" height="16" fill="white" transform="translate(4 4)"/>
</clipPath>
</defs>
</svg>
