<svg width="34" height="30" viewBox="0 0 34 30" fill="none" xmlns="http://www.w3.org/2000/svg">
<path d="M17 1.875C18.1272 1.875 19.2082 2.27009 20.0052 2.97335C20.8022 3.67661 21.25 4.63044 21.25 5.625V13.125H12.75V5.625C12.75 4.63044 13.1978 3.67661 13.9948 2.97335C14.7918 2.27009 15.8728 1.875 17 1.875ZM23.375 13.125V5.625C23.375 4.13316 22.7034 2.70242 21.5078 1.64752C20.3123 0.592632 18.6908 0 17 0C15.3092 0 13.6877 0.592632 12.4922 1.64752C11.2966 2.70242 10.625 4.13316 10.625 5.625V13.125C9.49783 13.125 8.41683 13.5201 7.6198 14.2233C6.82277 14.9266 6.375 15.8804 6.375 16.875V26.25C6.375 27.2446 6.82277 28.1984 7.6198 28.9016C8.41683 29.6049 9.49783 30 10.625 30H23.375C24.5022 30 25.5832 29.6049 26.3802 28.9016C27.1772 28.1984 27.625 27.2446 27.625 26.25V16.875C27.625 15.8804 27.1772 14.9266 26.3802 14.2233C25.5832 13.5201 24.5022 13.125 23.375 13.125ZM10.625 15H23.375C23.9386 15 24.4791 15.1975 24.8776 15.5492C25.2761 15.9008 25.5 16.3777 25.5 16.875V26.25C25.5 26.7473 25.2761 27.2242 24.8776 27.5758C24.4791 27.9275 23.9386 28.125 23.375 28.125H10.625C10.0614 28.125 9.52091 27.9275 9.1224 27.5758C8.72388 27.2242 8.5 26.7473 8.5 26.25V16.875C8.5 16.3777 8.72388 15.9008 9.1224 15.5492C9.52091 15.1975 10.0614 15 10.625 15Z" fill="#FBFCF9"/>
</svg>
