<svg width="24" height="27" viewBox="0 0 24 27" fill="none" xmlns="http://www.w3.org/2000/svg">
<path d="M8.72085 20.4395C8.7206 20.8891 8.58853 21.33 8.33907 21.714C8.08962 22.098 7.73237 22.4103 7.30638 22.6169C6.88038 22.8234 6.40203 22.9162 5.9236 22.8851C5.44516 22.854 4.98505 22.7002 4.59354 22.4405C4.20204 22.1808 3.8942 21.8252 3.70367 21.4126C3.51314 21 3.44725 20.5463 3.5132 20.1009C3.57915 19.6556 3.7744 19.2358 4.07762 18.8875C4.38084 18.5391 4.78036 18.2756 5.23251 18.1257V15.534C5.23251 15.3172 5.32439 15.1092 5.48794 14.9559C5.65149 14.8026 5.87331 14.7164 6.1046 14.7164C6.33589 14.7164 6.55771 14.8026 6.72125 14.9559C6.8848 15.1092 6.97668 15.3172 6.97668 15.534V18.1257C7.48699 18.2949 7.92877 18.6082 8.24116 19.0226C8.55354 19.437 8.72114 19.9321 8.72085 20.4395Z" fill="#FBFCF9"/>
<path d="M1.74417 4.0879C1.74417 3.00372 2.20357 1.96395 3.02131 1.19732C3.83905 0.430688 4.94814 0 6.1046 0C7.26105 0 8.37014 0.430688 9.18788 1.19732C10.0056 1.96395 10.465 3.00372 10.465 4.0879V16.4333C11.3063 17.2383 11.8753 18.2582 12.1008 19.3651C12.3263 20.4721 12.1982 21.6168 11.7325 22.6557C11.2668 23.6947 10.4844 24.5816 9.48317 25.2053C8.48198 25.829 7.30667 26.1617 6.1046 26.1617C4.90253 26.1617 3.72721 25.829 2.72603 25.2053C1.72484 24.5816 0.942353 23.6947 0.476681 22.6557C0.0110081 21.6168 -0.117121 20.4721 0.108361 19.3651C0.333843 18.2582 0.902899 17.2383 1.74417 16.4333V4.0879ZM6.1046 1.63516C5.41072 1.63516 4.74527 1.89357 4.25462 2.35355C3.76398 2.81353 3.48834 3.43739 3.48834 4.0879V17.1479L3.19707 17.3932C2.53877 17.9451 2.07474 18.6714 1.86639 19.4759C1.65804 20.2805 1.71518 21.1254 2.03027 21.8988C2.34535 22.6723 2.90352 23.3378 3.6309 23.8073C4.35828 24.2769 5.2206 24.5283 6.10372 24.5283C6.98685 24.5283 7.84917 24.2769 8.57655 23.8073C9.30393 23.3378 9.8621 22.6723 10.1772 21.8988C10.4923 21.1254 10.5494 20.2805 10.3411 19.4759C10.1327 18.6714 9.66868 17.9451 9.01038 17.3932L8.72085 17.1463V4.0879C8.72085 3.43739 8.44521 2.81353 7.95457 2.35355C7.46392 1.89357 6.79847 1.63516 6.1046 1.63516ZM14.8254 3.27032C15.0567 3.27032 15.2786 3.35646 15.4421 3.50978C15.6056 3.66311 15.6975 3.87106 15.6975 4.0879V6.20216L16.8243 5.14421C16.988 4.99069 17.2101 4.90444 17.4417 4.90444C17.6733 4.90444 17.8954 4.99069 18.0591 5.14421C18.2229 5.29773 18.3149 5.50595 18.3149 5.72306C18.3149 5.94016 18.2229 6.14838 18.0591 6.3019L15.6975 8.51427V11.6652L18.6085 10.0906L19.4719 7.06552C19.5017 6.96181 19.553 6.8646 19.6228 6.77947C19.6927 6.69433 19.7797 6.62292 19.879 6.56932C19.9783 6.51572 20.0878 6.48098 20.2014 6.46708C20.315 6.45318 20.4305 6.46039 20.5411 6.48831C20.6517 6.51622 20.7554 6.56429 20.8462 6.62978C20.937 6.69526 21.0132 6.77686 21.0704 6.86994C21.1275 6.96302 21.1646 7.06574 21.1794 7.17224C21.1943 7.27875 21.1866 7.38695 21.1568 7.49066L20.7434 8.93287L22.6969 7.87656C22.8971 7.76985 23.1342 7.74171 23.3564 7.79828C23.5787 7.85484 23.768 7.99153 23.8832 8.1785C23.9983 8.36547 24.0299 8.58755 23.971 8.79627C23.9122 9.00499 23.7676 9.18342 23.569 9.29261L21.6155 10.3489L23.1573 10.7365C23.268 10.7644 23.3717 10.8124 23.4625 10.8779C23.5533 10.9434 23.6294 11.025 23.6866 11.1181C23.7438 11.2112 23.7808 11.3139 23.7957 11.4204C23.8105 11.5269 23.8028 11.6351 23.773 11.7388C23.7433 11.8425 23.692 11.9397 23.6221 12.0249C23.5523 12.11 23.4652 12.1814 23.366 12.235C23.2667 12.2886 23.1571 12.3233 23.0435 12.3372C22.9299 12.3511 22.8145 12.3439 22.7039 12.316L19.4806 11.5066L16.5696 13.0813L19.4806 14.6559L22.7056 13.8465C22.8169 13.8168 22.9334 13.8081 23.0484 13.821C23.1633 13.8339 23.2743 13.8681 23.375 13.9217C23.4757 13.9752 23.564 14.047 23.6348 14.1329C23.7055 14.2187 23.7574 14.317 23.7873 14.4218C23.8171 14.5267 23.8244 14.636 23.8087 14.7435C23.7931 14.8511 23.7547 14.9546 23.6959 15.048C23.6371 15.1415 23.5591 15.2231 23.4663 15.288C23.3735 15.3529 23.2679 15.3998 23.1556 15.4261L21.6155 15.8136L23.569 16.8699C23.7676 16.9791 23.9122 17.1575 23.971 17.3663C24.0299 17.575 23.9983 17.7971 23.8832 17.984C23.768 18.171 23.5787 18.3077 23.3564 18.3643C23.1342 18.4208 22.8971 18.3927 22.6969 18.286L20.7434 17.2297L21.1568 18.6735C21.1885 18.7779 21.1978 18.8871 21.184 18.9949C21.1703 19.1026 21.1337 19.2067 21.0766 19.3011C21.0195 19.3955 20.9429 19.4783 20.8513 19.5446C20.7597 19.611 20.655 19.6596 20.5431 19.6876C20.4313 19.7156 20.3146 19.7224 20.2 19.7077C20.0853 19.693 19.9749 19.657 19.8752 19.6019C19.7754 19.5468 19.6884 19.4736 19.6192 19.3867C19.55 19.2997 19.4999 19.2007 19.4719 19.0954L18.6103 16.0736L15.6975 14.4973V17.6483L18.0591 19.8606C18.1402 19.9367 18.2045 20.0269 18.2484 20.1262C18.2923 20.2255 18.3149 20.332 18.3149 20.4395C18.3149 20.547 18.2923 20.6534 18.2484 20.7528C18.2045 20.8521 18.1402 20.9423 18.0591 21.0183C17.9781 21.0943 17.8818 21.1546 17.7759 21.1958C17.6699 21.2369 17.5564 21.2581 17.4417 21.2581C17.327 21.2581 17.2135 21.2369 17.1075 21.1958C17.0016 21.1546 16.9053 21.0943 16.8243 21.0183L15.6975 19.9604V22.0746C15.6975 22.2915 15.6056 22.4994 15.4421 22.6528C15.2786 22.8061 15.0567 22.8922 14.8254 22.8922C14.5942 22.8922 14.3723 22.8061 14.2088 22.6528C14.0452 22.4994 13.9534 22.2915 13.9534 22.0746V4.0879C13.9534 3.87106 14.0452 3.66311 14.2088 3.50978C14.3723 3.35646 14.5942 3.27032 14.8254 3.27032Z" fill="#FBFCF9"/>
</svg>
