<svg width="24" height="24" viewBox="0 0 24 24" fill="none" xmlns="http://www.w3.org/2000/svg">
<g clip-path="url(#clip0_35_178)">
<path d="M23.7105 0.796439C23.4495 0.530939 23.0955 0.362939 22.7505 0.251939C22.3437 0.130644 21.9246 0.0551755 21.501 0.0269391C20.571 -0.0465609 19.41 0.0269391 18.123 0.289439C15.5475 0.817439 12.396 2.12244 9.47252 4.64994C6.54902 7.17744 4.72052 10.2359 3.83552 12.7844C3.39452 14.0549 3.17552 15.2354 3.19202 16.1864C3.19952 16.6604 3.26702 17.1164 3.42302 17.5064C3.44802 17.5674 3.47602 17.6284 3.50702 17.6894C2.32711 19.3576 1.1976 21.0609 0.120017 22.7969C0.0115065 22.9723 -0.0245888 23.183 0.0193532 23.3846C0.0632952 23.5861 0.183835 23.7626 0.355517 23.8769C0.440277 23.9321 0.535233 23.9696 0.634766 23.9874C0.734299 24.0052 0.836385 24.0028 0.934985 23.9804C1.03358 23.958 1.12669 23.9161 1.2088 23.8571C1.29091 23.7981 1.36035 23.7232 1.41302 23.6369C2.44493 21.9763 3.52437 20.3456 4.65002 18.7469C5.07752 18.9584 5.57402 19.0394 6.08702 19.0199C6.85652 18.9899 7.73402 18.7379 8.67152 18.2849C10.5465 17.3774 12.7875 15.6044 15.126 12.8219L17.403 10.4969C17.5473 10.3485 17.6281 10.1497 17.6281 9.94269C17.6281 9.73568 17.5473 9.53684 17.403 9.38844L16.3095 8.27244L18.276 8.58594C18.3967 8.60545 18.5204 8.59514 18.6362 8.55593C18.752 8.51671 18.8565 8.44977 18.9405 8.36094L19.935 7.33494C20.9295 6.31494 21.873 5.34744 22.5795 4.49694C23.0505 3.92994 23.457 3.36894 23.7105 2.83644C23.955 2.31894 24.1275 1.67694 23.8785 1.05444C23.841 0.957747 23.7838 0.869896 23.7105 0.796439ZM5.59952 17.4299C8.07752 14.0609 10.86 10.8224 13.9635 8.09094L15.7785 9.94194L14.022 11.7359L13.9815 11.7809C11.7315 14.4644 9.64502 16.0814 8.01602 16.8704C7.20002 17.2649 6.53102 17.4374 6.03002 17.4554C5.88596 17.4624 5.74158 17.4548 5.59952 17.4299ZM15.753 6.59994C17.718 5.05794 19.803 3.72894 22.011 2.69994C21.8234 2.97071 21.6232 3.2325 21.411 3.48444C20.748 4.28394 19.869 5.18544 18.8895 6.19044L18.1245 6.97644L15.753 6.59994ZM20.772 1.56444C14.391 4.72044 9.06752 10.1999 4.72352 16.0169C4.73402 15.3209 4.90502 14.3879 5.27852 13.3079C6.07802 11.0054 7.75352 8.18544 10.461 5.84394C13.1715 3.50244 16.08 2.30394 18.426 1.82394C19.1976 1.66056 19.9834 1.57364 20.772 1.56444Z" fill="#FBFCF9"/>
</g>
<defs>
<clipPath id="clip0_35_178">
<rect width="24" height="24" fill="white"/>
</clipPath>
</defs>
</svg>
