<svg width="60" height="60" viewBox="0 0 60 60" fill="none" xmlns="http://www.w3.org/2000/svg">
<circle cx="30" cy="30" r="30" fill="#8D40D7"/>
<g clip-path="url(#clip0_35_77)">
<path d="M38.1275 10.1699C38.3722 10.3117 38.5615 10.5324 38.6646 10.7957C38.7677 11.0591 38.7784 11.3496 38.695 11.6199L34.1925 26.2499H42.5C42.7441 26.2498 42.983 26.3212 43.187 26.4553C43.391 26.5893 43.5513 26.7802 43.6481 27.0044C43.7449 27.2285 43.7739 27.4761 43.7316 27.7165C43.6893 27.957 43.5775 28.1797 43.41 28.3574L23.41 49.6074C23.2165 49.8132 22.959 49.9473 22.6794 49.988C22.3999 50.0287 22.1148 49.9735 21.8707 49.8314C21.6265 49.6893 21.4377 49.4688 21.335 49.2056C21.2323 48.9425 21.2217 48.6523 21.305 48.3824L25.8075 33.7499H17.5C17.2559 33.75 17.017 33.6786 16.813 33.5445C16.609 33.4104 16.4487 33.2195 16.3519 32.9954C16.2551 32.7713 16.2261 32.5237 16.2684 32.2833C16.3107 32.0428 16.4225 31.82 16.59 31.6424L36.59 10.3924C36.7833 10.1869 37.0404 10.0528 37.3195 10.012C37.5987 9.9711 37.8834 10.0259 38.1275 10.1674V10.1699Z" fill="#FBFCF9"/>
</g>
<defs>
<clipPath id="clip0_35_77">
<rect width="40" height="40" fill="white" transform="translate(10 10)"/>
</clipPath>
</defs>
</svg>
