<svg width="30" height="30" viewBox="0 0 30 30" fill="none" xmlns="http://www.w3.org/2000/svg">
<path d="M10.0088 2.98125C8.2229 3.4731 6.44925 4.00825 4.68938 4.58625C4.52856 4.63811 4.38559 4.7342 4.27683 4.86352C4.16807 4.99284 4.09791 5.15017 4.07439 5.3175C3.03564 13.1119 5.43564 18.7987 8.29876 22.545C9.51044 24.1475 10.9559 25.5588 12.5869 26.7319C13.2356 27.1894 13.8094 27.5194 14.2613 27.7313C14.4863 27.8375 14.6694 27.9112 14.8106 27.9525C14.8729 27.9714 14.9361 27.987 15 27.9994C15.0633 27.987 15.1259 27.9713 15.1875 27.9525C15.33 27.91 15.5138 27.8363 15.7388 27.7313C16.1888 27.5194 16.7644 27.1875 17.4131 26.7319C19.0441 25.5588 20.4896 24.1475 21.7013 22.545C24.5644 18.8006 26.9644 13.1119 25.9256 5.3175C25.9021 5.15017 25.832 4.99284 25.7232 4.86352C25.6144 4.7342 25.4715 4.63811 25.3106 4.58625C24.09 4.18688 22.0294 3.53625 19.9913 2.98312C17.91 2.41875 15.9956 2.00063 15 2.00063C14.0063 2.00063 12.09 2.41688 10.0088 2.98125ZM9.51001 1.05C11.5444 0.496875 13.7063 0 15 0C16.2938 0 18.4556 0.496875 20.49 1.05C22.5713 1.6125 24.6694 2.27812 25.9031 2.68125C26.419 2.8516 26.8763 3.164 27.2225 3.58256C27.5688 4.00113 27.79 4.50889 27.8606 5.0475C28.9781 13.4419 26.385 19.6631 23.2388 23.7787C21.9041 25.5389 20.3133 27.0892 18.5194 28.3781C17.8997 28.8252 17.2422 29.2173 16.5544 29.55C16.0294 29.7975 15.465 30 15 30C14.535 30 13.9725 29.7975 13.4456 29.55C12.7578 29.2173 12.1003 28.8252 11.4806 28.3781C9.68673 27.0892 8.09596 25.5389 6.76126 23.7787C3.61501 19.6631 1.02189 13.4419 2.13939 5.0475C2.21005 4.50889 2.43122 4.00113 2.77748 3.58256C3.12374 3.164 3.58106 2.8516 4.09688 2.68125C5.88799 2.09439 7.69288 1.55049 9.51001 1.05Z" fill="#FBFCF9"/>
<path d="M20.3513 9.64875C20.4386 9.73583 20.5078 9.83929 20.5551 9.95318C20.6024 10.0671 20.6267 10.1892 20.6267 10.3125C20.6267 10.4358 20.6024 10.5579 20.5551 10.6718C20.5078 10.7857 20.4386 10.8892 20.3513 10.9762L14.7263 16.6012C14.6392 16.6886 14.5357 16.7578 14.4218 16.8051C14.3079 16.8523 14.1858 16.8767 14.0625 16.8767C13.9392 16.8767 13.8171 16.8523 13.7032 16.8051C13.5893 16.7578 13.4859 16.6886 13.3988 16.6012L10.5863 13.7887C10.4991 13.7016 10.43 13.5981 10.3828 13.4842C10.3356 13.3703 10.3113 13.2483 10.3113 13.125C10.3113 13.0017 10.3356 12.8797 10.3828 12.7658C10.43 12.6519 10.4991 12.5484 10.5863 12.4612C10.6734 12.3741 10.7769 12.3049 10.8908 12.2578C11.0047 12.2106 11.1268 12.1863 11.25 12.1863C11.3733 12.1863 11.4954 12.2106 11.6092 12.2578C11.7231 12.3049 11.8266 12.3741 11.9138 12.4612L14.0625 14.6119L19.0238 9.64875C19.1109 9.56144 19.2143 9.49217 19.3282 9.44491C19.4421 9.39765 19.5642 9.37332 19.6875 9.37332C19.8108 9.37332 19.9329 9.39765 20.0468 9.44491C20.1607 9.49217 20.2642 9.56144 20.3513 9.64875Z" fill="#FBFCF9"/>
</svg>
