<svg width="18" height="18" viewBox="0 0 18 18" fill="none" xmlns="http://www.w3.org/2000/svg">
<g clip-path="url(#clip0_8_56)">
<path d="M2.45689e-09 3.9375C2.45689e-09 3.48995 0.17779 3.06072 0.494257 2.74426C0.810725 2.42779 1.23995 2.25 1.6875 2.25H11.8125C12.2601 2.25 12.6893 2.42779 13.0057 2.74426C13.3222 3.06072 13.5 3.48995 13.5 3.9375V5.625H14.6475C14.9003 5.62523 15.1499 5.68226 15.3777 5.79189C15.6055 5.90152 15.8058 6.06094 15.9637 6.25838L17.6299 8.33963C17.8696 8.63908 18.0001 9.01128 18 9.39487V11.8125C18 12.2601 17.8222 12.6893 17.5057 13.0057C17.1893 13.3222 16.7601 13.5 16.3125 13.5H15.75C15.75 14.0967 15.5129 14.669 15.091 15.091C14.669 15.5129 14.0967 15.75 13.5 15.75C12.9033 15.75 12.331 15.5129 11.909 15.091C11.4871 14.669 11.25 14.0967 11.25 13.5H5.625C5.62565 13.7999 5.56633 14.0969 5.45054 14.3736C5.33474 14.6502 5.16481 14.9009 4.95073 15.111C4.73665 15.321 4.48274 15.4861 4.20392 15.5966C3.92511 15.7071 3.62702 15.7607 3.32718 15.7543C3.02734 15.748 2.7318 15.6817 2.45793 15.5595C2.18407 15.4372 1.9374 15.2615 1.73244 15.0425C1.52748 14.8236 1.36836 14.5659 1.26443 14.2846C1.1605 14.0032 1.11386 13.704 1.12725 13.4044C0.797679 13.2884 0.512238 13.0729 0.310325 12.7878C0.108411 12.5027 -1.8846e-05 12.1619 2.45689e-09 11.8125L2.45689e-09 3.9375ZM1.45575 12.3255C1.65937 11.9928 1.94599 11.7187 2.28749 11.5302C2.629 11.3416 3.01365 11.2451 3.4037 11.2501C3.79376 11.2551 4.17582 11.3614 4.51238 11.5586C4.84895 11.7558 5.12847 12.0372 5.3235 12.375H11.5515C11.749 12.033 12.033 11.749 12.375 11.5515V3.9375C12.375 3.78832 12.3157 3.64524 12.2102 3.53975C12.1048 3.43426 11.9617 3.375 11.8125 3.375H1.6875C1.53832 3.375 1.39524 3.43426 1.28975 3.53975C1.18426 3.64524 1.125 3.78832 1.125 3.9375V11.8125C1.12491 11.9208 1.15607 12.0268 1.21474 12.1178C1.27341 12.2088 1.3571 12.2809 1.45575 12.3255ZM13.5 11.25C13.8949 11.25 14.2829 11.354 14.625 11.5515C14.967 11.7489 15.251 12.033 15.4485 12.375H16.3125C16.4617 12.375 16.6048 12.3157 16.7102 12.2102C16.8157 12.1048 16.875 11.9617 16.875 11.8125V9.39375C16.8748 9.2661 16.8311 9.14232 16.7513 9.04275L15.0863 6.9615C15.0336 6.89562 14.9669 6.84241 14.891 6.8058C14.815 6.76919 14.7318 6.75012 14.6475 6.75H13.5V11.25ZM3.375 12.375C3.07663 12.375 2.79048 12.4935 2.5795 12.7045C2.36853 12.9155 2.25 13.2016 2.25 13.5C2.25 13.7984 2.36853 14.0845 2.5795 14.2955C2.79048 14.5065 3.07663 14.625 3.375 14.625C3.67337 14.625 3.95952 14.5065 4.1705 14.2955C4.38147 14.0845 4.5 13.7984 4.5 13.5C4.5 13.2016 4.38147 12.9155 4.1705 12.7045C3.95952 12.4935 3.67337 12.375 3.375 12.375ZM13.5 12.375C13.2016 12.375 12.9155 12.4935 12.7045 12.7045C12.4935 12.9155 12.375 13.2016 12.375 13.5C12.375 13.7984 12.4935 14.0845 12.7045 14.2955C12.9155 14.5065 13.2016 14.625 13.5 14.625C13.7984 14.625 14.0845 14.5065 14.2955 14.2955C14.5065 14.0845 14.625 13.7984 14.625 13.5C14.625 13.2016 14.5065 12.9155 14.2955 12.7045C14.0845 12.4935 13.7984 12.375 13.5 12.375Z" fill="#FBFCF9"/>
</g>
<defs>
<clipPath id="clip0_8_56">
<rect width="18" height="18" fill="white"/>
</clipPath>
</defs>
</svg>
